<svg xmlns="http://www.w3.org/2000/svg">
	<symbol id="fb" viewBox="0 0 20 20">
		<g clip-path="url(#clip0)">
			<path d="M12.718 4.34695H14.5404C14.9309 4.34695 15.2486 4.0293 15.2486 3.63883V0.71043C15.2486 0.319961 14.9309 0.00230469 14.5404 0.00230469H12.0379C12.0139 0.00128906 11.9722 0 11.9138 0C11.4417 0 9.79967 0.093164 8.49697 1.29156C7.07506 2.59988 7.21111 4.16488 7.27096 4.55074V6.45855H5.45959C5.06916 6.45855 4.75146 6.77621 4.75146 7.16668V10.3162C4.75146 10.7068 5.06912 11.0245 5.45959 11.0245H7.16615V19.2919C7.16615 19.6823 7.48381 20 7.87428 20H11.4433C11.8338 20 12.1515 19.6823 12.1515 19.2919V11.0653H14.1729C14.5328 11.0653 14.8353 10.7956 14.8764 10.4381L15.2439 7.24777C15.267 7.04734 15.2033 6.84602 15.069 6.69543C14.9348 6.54492 14.7422 6.45859 14.5405 6.45859H12.1516V4.85715C12.1515 4.52625 12.2418 4.34695 12.718 4.34695ZM11.7532 7.25543H14.441L14.0938 10.2685H11.7531C11.5331 10.2685 11.3547 10.4468 11.3547 10.6669V19.2032H7.96291V10.626C7.96291 10.406 7.78451 10.2276 7.56451 10.2276H5.54822V7.25535H7.66936C7.88936 7.25535 8.06775 7.07699 8.06775 6.85695V4.51836C8.06775 4.49551 8.0658 4.47266 8.06189 4.45012C8.0199 4.20891 7.86979 2.95148 9.0365 1.87797C10.1269 0.874805 11.5146 0.796836 11.9139 0.796836C11.9699 0.796836 12.0032 0.79832 12.0093 0.798633C12.0158 0.798945 12.0224 0.799102 12.029 0.799102H14.4519V3.5502H12.7181C11.8644 3.5502 11.3547 4.03879 11.3547 4.85715V6.85699C11.3547 7.07707 11.5332 7.25543 11.7532 7.25543Z" fill="white"/>
			<path d="M8.76485 13.4263C8.54485 13.4263 8.36646 13.6047 8.36646 13.8247V14.0239C8.36646 14.244 8.54485 14.4223 8.76485 14.4223C8.98485 14.4223 9.16325 14.244 9.16325 14.0239V13.8247C9.16325 13.6047 8.98481 13.4263 8.76485 13.4263Z" fill="white"/>
			<path d="M8.76485 14.9004C8.54485 14.9004 8.36646 15.0788 8.36646 15.2988V18.3267C8.36646 18.5468 8.54485 18.7251 8.76485 18.7251C8.98485 18.7251 9.16325 18.5468 9.16325 18.3267V15.2988C9.16325 15.0788 8.98481 14.9004 8.76485 14.9004Z" fill="white"/>
		</g>
	</symbol>
	<symbol id="vk" viewBox="0 0 20 20">
		<g clip-path="url(#clip0)">
			<path d="M19.1121 13.1126C18.677 12.5912 18.1855 12.1257 17.7102 11.6755C17.5431 11.5173 17.3703 11.3537 17.2039 11.1912C17.2039 11.1912 17.2038 11.1911 17.2038 11.1911C16.98 10.9728 16.8704 10.8178 16.859 10.7033C16.8477 10.5908 16.9246 10.4239 17.1014 10.1772C17.3658 9.80611 17.6477 9.43439 17.9203 9.07493C18.1627 8.7554 18.4132 8.42497 18.6534 8.09266L18.7073 8.01805C19.1758 7.36954 19.6603 6.69895 19.9199 5.88176C19.9941 5.64746 20.071 5.30074 19.8853 4.99636C19.6996 4.69191 19.3551 4.60167 19.1124 4.56035C18.9939 4.54003 18.8814 4.53835 18.7767 4.53835L15.7374 4.53566C15.2119 4.52691 14.8474 4.77597 14.6487 5.27613C14.4897 5.67558 14.3019 6.13852 14.0844 6.57766C13.6682 7.42544 13.1393 8.40188 12.3727 9.21544L12.3387 9.25169C12.2865 9.3074 12.2012 9.39849 12.1574 9.41939C12.0744 9.3672 11.9786 9.06872 11.9829 8.91236C11.9831 8.90849 11.9831 8.90466 11.9831 8.90083L11.9804 5.38898C11.9804 5.37113 11.9791 5.35328 11.9768 5.33558C11.9086 4.83457 11.7757 4.3323 10.9827 4.17581C10.9573 4.17077 10.9314 4.16827 10.9056 4.16827H7.74405C7.14924 4.16827 6.83463 4.44066 6.58241 4.73597C6.5094 4.82207 6.31541 5.05066 6.41424 5.33011C6.51424 5.61289 6.81221 5.66933 6.91003 5.68785C7.25456 5.75324 7.43272 5.94797 7.48788 6.32024C7.5969 7.04356 7.61026 7.81735 7.52999 8.75419C7.50761 9.00572 7.46596 9.19689 7.39878 9.35587C7.38018 9.3999 7.36385 9.42716 7.35245 9.44322C7.33425 9.43587 7.30592 9.42181 7.26671 9.39497C7.0246 9.22931 6.84213 8.97177 6.66569 8.72278C5.96092 7.72774 5.36811 6.62875 4.85314 5.36254C4.64107 4.84367 4.2424 4.55386 3.7313 4.54636C2.75755 4.53015 1.85696 4.53054 0.978989 4.54761C0.564886 4.5548 0.274494 4.68515 0.115744 4.93511C-0.0432019 5.18554 -0.0373816 5.50484 0.133088 5.8843C1.35169 8.59407 2.45817 10.5653 3.72068 12.276C4.60963 13.4804 5.50447 14.3164 6.53678 14.9071C7.6214 15.5276 8.8446 15.8317 10.2637 15.8316C10.425 15.8316 10.5892 15.8277 10.7556 15.8198C11.6311 15.7799 11.9873 15.4316 12.0262 14.5789C12.048 14.1283 12.0981 13.7632 12.2722 13.446C12.3208 13.3572 12.3757 13.2977 12.419 13.2868C12.465 13.2753 12.5466 13.3035 12.6374 13.3624C12.8033 13.4701 12.9461 13.6162 13.0636 13.7445C13.1827 13.8748 13.303 14.0095 13.4194 14.1397C13.6672 14.4169 13.9234 14.7036 14.1918 14.977C14.799 15.5959 15.4989 15.8798 16.273 15.8203L19.0545 15.8216C19.0546 15.8216 19.0546 15.8216 19.0546 15.8216C19.0635 15.8216 19.0723 15.8213 19.0811 15.8207C19.4019 15.7994 19.6793 15.6218 19.8422 15.3333C20.0384 14.986 20.0354 14.546 19.8341 14.156C19.6241 13.7505 19.3517 13.4014 19.1121 13.1126ZM19.1484 14.9416C19.1101 15.0095 19.0628 15.0219 19.0383 15.0248L16.2575 15.0236C16.2574 15.0236 16.2573 15.0236 16.2572 15.0236C16.2462 15.0236 16.2353 15.024 16.2244 15.0249C15.6765 15.0705 15.2108 14.878 14.7605 14.419C14.5051 14.1587 14.2552 13.8792 14.0135 13.6088C13.8957 13.477 13.774 13.3407 13.6516 13.2068C13.4999 13.0411 13.3124 12.8507 13.0714 12.6942C12.7106 12.46 12.4116 12.4671 12.2244 12.5143C12.0391 12.561 11.7757 12.6942 11.5736 13.0631C11.3117 13.5404 11.2539 14.0553 11.2304 14.5418C11.2168 14.8393 11.1665 14.9178 11.1455 14.9378C11.118 14.964 11.0259 15.01 10.7189 15.024C9.24324 15.0934 8.00487 14.8291 6.93249 14.2156C5.99959 13.6818 5.18271 12.9151 4.36181 11.803C3.13427 10.1397 2.05419 8.21364 0.859848 5.55777C0.816567 5.46156 0.803207 5.40152 0.79934 5.36937C0.829809 5.35937 0.88934 5.34621 0.993716 5.34429C1.86278 5.32746 2.75396 5.32699 3.71892 5.34308C3.85103 5.34504 4.00146 5.38468 4.11537 5.6634C4.65342 6.98641 5.27494 8.13778 6.01557 9.18341C6.21221 9.46095 6.45698 9.80642 6.8167 10.0526C7.1462 10.2782 7.41358 10.2674 7.57991 10.2186C7.74632 10.1699 7.97726 10.0343 8.1328 9.66603C8.23316 9.42865 8.29382 9.16134 8.32386 8.82361C8.40968 7.82153 8.39444 6.9884 8.27601 6.20258C8.19253 5.63957 7.90183 5.23285 7.44389 5.02515C7.52522 4.98281 7.61686 4.96515 7.74413 4.96515H10.8643C11.0399 5.00453 11.0746 5.05078 11.0866 5.0666C11.1371 5.13382 11.166 5.29285 11.1837 5.41711L11.1863 8.89657C11.1793 9.23013 11.3414 9.9699 11.8934 10.1728C11.8979 10.1744 11.9025 10.176 11.907 10.1775C12.4095 10.3417 12.7419 9.98697 12.9204 9.79638L12.9522 9.76255C13.7918 8.87134 14.3573 7.83001 14.799 6.9302C15.0293 6.46555 15.2243 5.98492 15.3892 5.57062C15.4717 5.36285 15.5467 5.32863 15.7259 5.33242C15.7283 5.3325 15.7308 5.3325 15.7333 5.3325L18.7764 5.33519C18.8472 5.33519 18.9211 5.33601 18.9784 5.34582C19.1234 5.37051 19.1831 5.40058 19.2028 5.41304C19.2048 5.43613 19.2044 5.50254 19.1605 5.64113C18.9398 6.33602 18.5132 6.92641 18.0616 7.55149L18.0076 7.62622C17.773 7.95091 17.5252 8.27759 17.2856 8.59356C17.0095 8.95767 16.724 9.33411 16.4533 9.71404C15.8747 10.5214 15.9255 11.0572 16.6477 11.7616C16.8183 11.9282 16.9933 12.0939 17.1625 12.2541C17.6422 12.7085 18.0954 13.1377 18.4998 13.6223C18.7115 13.8776 18.9515 14.1841 19.1264 14.5219C19.2177 14.6987 19.1953 14.8585 19.1484 14.9416Z" fill="white"/>
			<path d="M2.90574 6.62641C2.84722 6.51063 2.78921 6.39453 2.73175 6.2782C2.63425 6.08098 2.3955 5.99996 2.19812 6.09746C2.00085 6.19492 1.91991 6.43383 2.01737 6.6311C2.07593 6.74961 2.13503 6.86789 2.1946 6.98582C2.26472 7.12457 2.40499 7.20458 2.55046 7.20458C2.61085 7.20458 2.67222 7.19079 2.72984 7.16168C2.92628 7.06239 3.00499 6.82278 2.90574 6.62641Z" fill="white"/>
			<path d="M5.40432 10.7594C4.75104 9.87432 4.13986 8.91295 3.53596 7.82041C3.42951 7.62783 3.18709 7.55806 2.99455 7.66447C2.80201 7.77091 2.73216 8.01334 2.83861 8.20588C3.45955 9.32916 4.08912 10.3192 4.76326 11.2326C4.84139 11.3385 4.96198 11.3945 5.08412 11.3945C5.16631 11.3945 5.2492 11.3692 5.32038 11.3165C5.49737 11.1859 5.53495 10.9365 5.40432 10.7594Z" fill="white"/>
		</g>
	</symbol>
	<symbol id="ytb" viewBox="0 0 20 20">
		<g>
			<path d="M19.7997 5.7596C19.7997 5.69281 19.5993 4.22373 18.965 3.52256C18.197 2.68785 17.3623 2.58768 16.9282 2.55427H16.7947C14.0902 2.35393 10.0501 2.32056 9.98335 2.32056C9.94998 2.32056 5.87651 2.35393 3.20538 2.62106H3.10521C2.63771 2.65443 1.803 2.7546 1.06846 3.58931C0.400668 4.29048 0.200334 5.79298 0.200334 5.85977C0.200334 5.85977 0 7.56261 0 9.26544V10.8347C0 12.5042 0.200334 14.207 0.200334 14.2404C0.200334 14.3072 0.400668 15.7763 1.03504 16.4775C1.73621 17.2788 2.57092 17.379 3.10517 17.4457C3.20534 17.4457 3.27213 17.4457 3.3723 17.4791C4.90818 17.6127 9.78298 17.6795 9.98331 17.6795C10.0167 17.6795 14.0902 17.6795 16.7947 17.379H16.8948C17.3623 17.3456 18.197 17.2454 18.9315 16.4107C19.5993 15.7095 19.7997 14.207 19.7997 14.1402C19.7997 14.1402 20 12.4374 20 10.7345V9.16528C20 7.49582 19.7997 5.79298 19.7997 5.7596ZM19.3322 10.8013C19.3322 12.4708 19.1319 14.1402 19.1319 14.1402C19.0651 14.5075 18.8647 15.5759 18.4307 16.0434C17.8631 16.7112 17.1953 16.7779 16.828 16.8113H16.7279C14.0567 17.0117 10.0167 17.0117 9.98331 17.0117C9.94994 17.0117 4.94159 16.9449 3.47247 16.778C3.3723 16.778 3.27213 16.7446 3.17196 16.7446C2.70451 16.7112 2.03675 16.611 1.5025 16.01C1.10184 15.576 0.868126 14.5075 0.834711 14.1402C0.834711 14.1069 0.634377 12.4374 0.634377 10.8014V9.23207C0.634377 7.56261 0.834711 5.89319 0.834711 5.89319C0.868087 5.5259 1.10184 4.45748 1.5025 3.99002C2.1035 3.32222 2.73788 3.25543 3.13855 3.22206H3.23872C5.90985 3.02172 9.9499 2.98835 9.98327 2.98835C10.0166 2.98835 14.0567 3.02172 16.7278 3.22206H16.8614C17.2287 3.25543 17.8964 3.32222 18.464 3.99002C18.8647 4.45748 19.065 5.5259 19.1318 5.89319C19.1652 5.95998 19.3322 7.6294 19.3322 9.23207V10.8013H19.3322Z" fill="white"/>
			<path d="M14.157 10.0334L7.81309 6.32722C7.71292 6.26043 7.57938 6.26043 7.47921 6.32722C7.37905 6.39401 7.31226 6.49418 7.31226 6.62772V13.8731C7.31226 14.0067 7.37905 14.1068 7.47921 14.1736C7.546 14.207 7.57938 14.207 7.64617 14.207C7.71296 14.207 7.74634 14.207 7.81313 14.1736L14.157 10.6344C14.2572 10.5676 14.324 10.4674 14.324 10.3339C14.324 10.2004 14.2572 10.1002 14.157 10.0334ZM7.98005 13.3055V7.19531L13.3223 10.3339L7.98005 13.3055Z" fill="white"/>
		</g>
		
	</symbol>
	<symbol id="telegram" viewBox="0 0 20 20">
		<g clip-path="url(#clip0)">
			<path d="M15.0495 4.76251L6.82413 9.82852C6.35866 10.1159 6.13839 10.6834 6.28835 11.2083L7.17773 14.3333C7.2537 14.5998 7.49081 14.7769 7.76362 14.7769C7.77882 14.7769 7.79417 14.7763 7.80956 14.7752C8.1012 14.754 8.33198 14.5368 8.37077 14.2473L8.60202 12.5338C8.63319 12.3032 8.74429 12.0888 8.91456 11.9302L15.7023 5.62071C15.9074 5.43052 15.9345 5.11907 15.7655 4.8963C15.5962 4.67333 15.2885 4.61567 15.0495 4.76251ZM8.37183 11.3468C8.06683 11.6308 7.86812 12.0144 7.81233 12.4271L7.70019 13.2583L7.0546 10.9899C7.00214 10.8061 7.07941 10.6074 7.2423 10.5068L13.268 6.79563L8.37183 11.3468Z" fill="white"/>
			<path d="M19.6744 1.46026C19.4174 1.24244 19.0628 1.18248 18.7487 1.30381L0.588829 8.30936C0.229181 8.44807 -0.00206923 8.7867 -0.000233288 9.17205C0.00164171 9.55776 0.23629 9.89452 0.598048 10.0301L4.83985 11.6132L6.49449 16.9345C6.58535 17.2271 6.81469 17.4544 7.10789 17.5426C7.40094 17.6307 7.71742 17.5677 7.95399 17.3742L10.4204 15.3635C10.5388 15.267 10.708 15.2622 10.8316 15.352L15.2802 18.5817C15.4402 18.6981 15.6291 18.758 15.8202 18.758C15.9321 18.758 16.0447 18.7374 16.1529 18.6956C16.4453 18.5825 16.6579 18.3319 16.7216 18.0252L19.9805 2.34905C20.049 2.01897 19.9317 1.67842 19.6744 1.46026ZM19.2004 2.18713L15.9415 17.8632C15.9297 17.9199 15.8889 17.9434 15.8656 17.9524C15.8422 17.9615 15.7959 17.9715 15.7486 17.9371L11.2998 14.7072C11.101 14.5628 10.8672 14.4912 10.6338 14.4912C10.3791 14.4912 10.1249 14.5765 9.91707 14.7458L7.45012 16.7569C7.40621 16.7929 7.36063 16.7865 7.33742 16.7795C7.31406 16.7724 7.27238 16.7525 7.25543 16.698L5.54274 11.1899C5.50613 11.0723 5.41707 10.9781 5.3016 10.935L0.877189 9.2837C0.810939 9.25889 0.796837 9.20721 0.796642 9.16819C0.796447 9.12952 0.81004 9.07807 0.875665 9.05276L19.0355 2.04725C19.0356 2.04721 19.0357 2.04717 19.0359 2.04713C19.0948 2.02436 19.1385 2.05053 19.1593 2.06811C19.1801 2.08588 19.2133 2.12494 19.2004 2.18713Z" fill="white"/>
			<path d="M16.6984 9.84931C16.4833 9.80259 16.2712 9.93912 16.2245 10.1542L16.1639 10.4331C16.1173 10.6481 16.2537 10.8602 16.4688 10.9069C16.4973 10.9131 16.5257 10.9161 16.5537 10.9161C16.7371 10.9161 16.9021 10.7886 16.9427 10.6021L17.0032 10.3232C17.0499 10.1082 16.9134 9.89603 16.6984 9.84931Z" fill="white"/>
			<path d="M16.3001 11.6844C16.0847 11.6378 15.8728 11.7742 15.8262 11.9893L14.9098 16.21C14.8631 16.4251 14.9996 16.6372 15.2146 16.6839C15.2431 16.6901 15.2715 16.693 15.2995 16.693C15.4829 16.693 15.6479 16.5656 15.6885 16.3791L16.6049 12.1583C16.6515 11.9433 16.5151 11.7311 16.3001 11.6844Z" fill="white"/>
		</g>
	</symbol>
	<symbol id="comment" viewBox="0 0 20 18">
		<g>
			<path d="M3.21255 1.34769H16.807C18.2283 1.34769 19.3848 2.50389 19.3848 3.92547V12.245C19.3848 13.6634 18.2334 14.8177 16.8161 14.8228V18.5981L11.3906 14.8228H3.21255C1.79119 14.8228 0.634766 13.6663 0.634766 12.245V3.92547C0.634766 2.50389 1.79119 1.34769 3.21255 1.34769ZM1.7334 12.245C1.7334 13.0605 2.39693 13.7241 3.21255 13.7241H11.7353L15.7175 16.4952V13.7241H16.807C17.6226 13.7241 18.2861 13.0605 18.2861 12.245V3.92547C18.2861 3.10974 17.6226 2.44632 16.807 2.44632H3.21255C2.39693 2.44632 1.7334 3.10974 1.7334 3.92547V12.245Z" fill="white"/>
			<path d="M14.3665 5.22965H5.65316V6.32828H14.3665V5.22965Z" fill="white"/>
			<path d="M14.3665 7.5734H5.65316V8.67203H14.3665V7.5734Z" fill="white"/>
			<path d="M14.3665 9.91715H5.65316V11.0158H14.3665V9.91715Z" fill="white"/>
		</g>

	</symbol>
	<symbol id="eye" viewBox="0 0 20 20">
		<g clip-path="url(#clip0)">
			<path d="M19.9259 9.76332C19.7684 9.53414 15.9834 4.16655 9.99995 4.16655C4.86569 4.16655 0.29062 9.50332 0.0981168 9.73082C-0.0327056 9.88582 -0.0327056 10.1133 0.0981168 10.2691C0.29062 10.4967 4.86569 15.8334 9.99995 15.8334C15.1342 15.8334 19.7092 10.4967 19.9017 10.2691C20.0226 10.1258 20.0334 9.91832 19.9259 9.76332ZM9.99995 15.0001C5.88407 15.0001 1.97065 11.075 0.97649 10C1.96901 8.92417 5.87825 4.99993 9.99995 4.99993C14.8158 4.99993 18.2151 8.91917 19.0451 9.9775C18.0867 11.0183 14.1508 15.0001 9.99995 15.0001Z" fill="white"/>
			<path d="M9.99988 6.66659C8.16153 6.66659 6.6665 8.16162 6.6665 9.99996C6.6665 11.8383 8.16153 13.3333 9.99988 13.3333C11.8382 13.3333 13.3333 11.8383 13.3333 9.99996C13.3333 8.16162 11.8382 6.66659 9.99988 6.66659ZM9.99988 12.5C8.62154 12.5 7.49984 11.3783 7.49984 10C7.49984 8.62166 8.62154 7.49996 9.99988 7.49996C11.3782 7.49996 12.4999 8.62166 12.4999 10C12.4999 11.3783 11.3782 12.5 9.99988 12.5Z" fill="white"/>
		</g>
	</symbol>
	<symbol id="cross" viewBox="0 0 22 22">
		<g>
			<path d="M21 1L1 21" stroke="white"/>
			<path d="M0.999999 1L21 21" stroke="white"/>
		</g>	
	</symbol>
</svg>