<svg width="20" height="20" viewBox="0 0 20 20" fill="none" xmlns="http://www.w3.org/2000/svg">
<g clip-path="url(#clip0)">
<path d="M19.1121 13.1126C18.677 12.5912 18.1855 12.1257 17.7102 11.6755C17.5431 11.5173 17.3703 11.3537 17.2039 11.1912C17.2039 11.1912 17.2038 11.1911 17.2038 11.1911C16.98 10.9728 16.8704 10.8178 16.859 10.7033C16.8477 10.5908 16.9246 10.4239 17.1014 10.1772C17.3658 9.80611 17.6477 9.43439 17.9203 9.07493C18.1627 8.7554 18.4132 8.42497 18.6534 8.09266L18.7073 8.01805C19.1758 7.36954 19.6603 6.69895 19.9199 5.88176C19.9941 5.64746 20.071 5.30074 19.8853 4.99636C19.6996 4.69191 19.3551 4.60167 19.1124 4.56035C18.9939 4.54003 18.8814 4.53835 18.7767 4.53835L15.7374 4.53566C15.2119 4.52691 14.8474 4.77597 14.6487 5.27613C14.4897 5.67558 14.3019 6.13852 14.0844 6.57766C13.6682 7.42544 13.1393 8.40188 12.3727 9.21544L12.3387 9.25169C12.2865 9.3074 12.2012 9.39849 12.1574 9.41939C12.0744 9.3672 11.9786 9.06872 11.9829 8.91236C11.9831 8.90849 11.9831 8.90466 11.9831 8.90083L11.9804 5.38898C11.9804 5.37113 11.9791 5.35328 11.9768 5.33558C11.9086 4.83457 11.7757 4.3323 10.9827 4.17581C10.9573 4.17077 10.9314 4.16827 10.9056 4.16827H7.74405C7.14924 4.16827 6.83463 4.44066 6.58241 4.73597C6.5094 4.82207 6.31541 5.05066 6.41424 5.33011C6.51424 5.61289 6.81221 5.66933 6.91003 5.68785C7.25456 5.75324 7.43272 5.94797 7.48788 6.32024C7.5969 7.04356 7.61026 7.81735 7.52999 8.75419C7.50761 9.00572 7.46596 9.19689 7.39878 9.35587C7.38018 9.3999 7.36385 9.42716 7.35245 9.44322C7.33425 9.43587 7.30592 9.42181 7.26671 9.39497C7.0246 9.22931 6.84213 8.97177 6.66569 8.72278C5.96092 7.72774 5.36811 6.62875 4.85314 5.36254C4.64107 4.84367 4.2424 4.55386 3.7313 4.54636C2.75755 4.53015 1.85696 4.53054 0.978989 4.54761C0.564886 4.5548 0.274494 4.68515 0.115744 4.93511C-0.0432019 5.18554 -0.0373816 5.50484 0.133088 5.8843C1.35169 8.59407 2.45817 10.5653 3.72068 12.276C4.60963 13.4804 5.50447 14.3164 6.53678 14.9071C7.6214 15.5276 8.8446 15.8317 10.2637 15.8316C10.425 15.8316 10.5892 15.8277 10.7556 15.8198C11.6311 15.7799 11.9873 15.4316 12.0262 14.5789C12.048 14.1283 12.0981 13.7632 12.2722 13.446C12.3208 13.3572 12.3757 13.2977 12.419 13.2868C12.465 13.2753 12.5466 13.3035 12.6374 13.3624C12.8033 13.4701 12.9461 13.6162 13.0636 13.7445C13.1827 13.8748 13.303 14.0095 13.4194 14.1397C13.6672 14.4169 13.9234 14.7036 14.1918 14.977C14.799 15.5959 15.4989 15.8798 16.273 15.8203L19.0545 15.8216C19.0546 15.8216 19.0546 15.8216 19.0546 15.8216C19.0635 15.8216 19.0723 15.8213 19.0811 15.8207C19.4019 15.7994 19.6793 15.6218 19.8422 15.3333C20.0384 14.986 20.0354 14.546 19.8341 14.156C19.6241 13.7505 19.3517 13.4014 19.1121 13.1126ZM19.1484 14.9416C19.1101 15.0095 19.0628 15.0219 19.0383 15.0248L16.2575 15.0236C16.2574 15.0236 16.2573 15.0236 16.2572 15.0236C16.2462 15.0236 16.2353 15.024 16.2244 15.0249C15.6765 15.0705 15.2108 14.878 14.7605 14.419C14.5051 14.1587 14.2552 13.8792 14.0135 13.6088C13.8957 13.477 13.774 13.3407 13.6516 13.2068C13.4999 13.0411 13.3124 12.8507 13.0714 12.6942C12.7106 12.46 12.4116 12.4671 12.2244 12.5143C12.0391 12.561 11.7757 12.6942 11.5736 13.0631C11.3117 13.5404 11.2539 14.0553 11.2304 14.5418C11.2168 14.8393 11.1665 14.9178 11.1455 14.9378C11.118 14.964 11.0259 15.01 10.7189 15.024C9.24324 15.0934 8.00487 14.8291 6.93249 14.2156C5.99959 13.6818 5.18271 12.9151 4.36181 11.803C3.13427 10.1397 2.05419 8.21364 0.859848 5.55777C0.816567 5.46156 0.803207 5.40152 0.79934 5.36937C0.829809 5.35937 0.88934 5.34621 0.993716 5.34429C1.86278 5.32746 2.75396 5.32699 3.71892 5.34308C3.85103 5.34504 4.00146 5.38468 4.11537 5.6634C4.65342 6.98641 5.27494 8.13778 6.01557 9.18341C6.21221 9.46095 6.45698 9.80642 6.8167 10.0526C7.1462 10.2782 7.41358 10.2674 7.57991 10.2186C7.74632 10.1699 7.97726 10.0343 8.1328 9.66603C8.23316 9.42865 8.29382 9.16134 8.32386 8.82361C8.40968 7.82153 8.39444 6.9884 8.27601 6.20258C8.19253 5.63957 7.90183 5.23285 7.44389 5.02515C7.52522 4.98281 7.61686 4.96515 7.74413 4.96515H10.8643C11.0399 5.00453 11.0746 5.05078 11.0866 5.0666C11.1371 5.13382 11.166 5.29285 11.1837 5.41711L11.1863 8.89657C11.1793 9.23013 11.3414 9.9699 11.8934 10.1728C11.8979 10.1744 11.9025 10.176 11.907 10.1775C12.4095 10.3417 12.7419 9.98697 12.9204 9.79638L12.9522 9.76255C13.7918 8.87134 14.3573 7.83001 14.799 6.9302C15.0293 6.46555 15.2243 5.98492 15.3892 5.57062C15.4717 5.36285 15.5467 5.32863 15.7259 5.33242C15.7283 5.3325 15.7308 5.3325 15.7333 5.3325L18.7764 5.33519C18.8472 5.33519 18.9211 5.33601 18.9784 5.34582C19.1234 5.37051 19.1831 5.40058 19.2028 5.41304C19.2048 5.43613 19.2044 5.50254 19.1605 5.64113C18.9398 6.33602 18.5132 6.92641 18.0616 7.55149L18.0076 7.62622C17.773 7.95091 17.5252 8.27759 17.2856 8.59356C17.0095 8.95767 16.724 9.33411 16.4533 9.71404C15.8747 10.5214 15.9255 11.0572 16.6477 11.7616C16.8183 11.9282 16.9933 12.0939 17.1625 12.2541C17.6422 12.7085 18.0954 13.1377 18.4998 13.6223C18.7115 13.8776 18.9515 14.1841 19.1264 14.5219C19.2177 14.6987 19.1953 14.8585 19.1484 14.9416Z" fill="white"/>
<path d="M2.90574 6.62641C2.84722 6.51063 2.78921 6.39453 2.73175 6.2782C2.63425 6.08098 2.3955 5.99996 2.19812 6.09746C2.00085 6.19492 1.91991 6.43383 2.01737 6.6311C2.07593 6.74961 2.13503 6.86789 2.1946 6.98582C2.26472 7.12457 2.40499 7.20458 2.55046 7.20458C2.61085 7.20458 2.67222 7.19079 2.72984 7.16168C2.92628 7.06239 3.00499 6.82278 2.90574 6.62641Z" fill="white"/>
<path d="M5.40432 10.7594C4.75104 9.87432 4.13986 8.91295 3.53596 7.82041C3.42951 7.62783 3.18709 7.55806 2.99455 7.66447C2.80201 7.77091 2.73216 8.01334 2.83861 8.20588C3.45955 9.32916 4.08912 10.3192 4.76326 11.2326C4.84139 11.3385 4.96198 11.3945 5.08412 11.3945C5.16631 11.3945 5.2492 11.3692 5.32038 11.3165C5.49737 11.1859 5.53495 10.9365 5.40432 10.7594Z" fill="white"/>
</g>
<defs>
<clipPath id="clip0">
<rect width="20" height="20" fill="white"/>
</clipPath>
</defs>
</svg>
