<svg width="20" height="20" viewBox="0 0 20 20" fill="none" xmlns="http://www.w3.org/2000/svg">
<path d="M3.21255 1.34769H16.807C18.2283 1.34769 19.3848 2.50389 19.3848 3.92547V12.245C19.3848 13.6634 18.2334 14.8177 16.8161 14.8228V18.5981L11.3906 14.8228H3.21255C1.79119 14.8228 0.634766 13.6663 0.634766 12.245V3.92547C0.634766 2.50389 1.79119 1.34769 3.21255 1.34769ZM1.7334 12.245C1.7334 13.0605 2.39693 13.7241 3.21255 13.7241H11.7353L15.7175 16.4952V13.7241H16.807C17.6226 13.7241 18.2861 13.0605 18.2861 12.245V3.92547C18.2861 3.10974 17.6226 2.44632 16.807 2.44632H3.21255C2.39693 2.44632 1.7334 3.10974 1.7334 3.92547V12.245Z" fill="white"/>
<path d="M14.3665 5.22965H5.65316V6.32828H14.3665V5.22965Z" fill="white"/>
<path d="M14.3665 7.5734H5.65316V8.67203H14.3665V7.5734Z" fill="white"/>
<path d="M14.3665 9.91715H5.65316V11.0158H14.3665V9.91715Z" fill="white"/>
</svg>
