<svg width="20" height="20" viewBox="0 0 20 20" fill="none" xmlns="http://www.w3.org/2000/svg">
<g clip-path="url(#clip0)">
<path d="M19.9259 9.76332C19.7684 9.53414 15.9834 4.16655 9.99995 4.16655C4.86569 4.16655 0.29062 9.50332 0.0981168 9.73082C-0.0327056 9.88582 -0.0327056 10.1133 0.0981168 10.2691C0.29062 10.4967 4.86569 15.8334 9.99995 15.8334C15.1342 15.8334 19.7092 10.4967 19.9017 10.2691C20.0226 10.1258 20.0334 9.91832 19.9259 9.76332ZM9.99995 15.0001C5.88407 15.0001 1.97065 11.075 0.97649 10C1.96901 8.92417 5.87825 4.99993 9.99995 4.99993C14.8158 4.99993 18.2151 8.91917 19.0451 9.9775C18.0867 11.0183 14.1508 15.0001 9.99995 15.0001Z" fill="white"/>
<path d="M9.99988 6.66659C8.16153 6.66659 6.6665 8.16162 6.6665 9.99996C6.6665 11.8383 8.16153 13.3333 9.99988 13.3333C11.8382 13.3333 13.3333 11.8383 13.3333 9.99996C13.3333 8.16162 11.8382 6.66659 9.99988 6.66659ZM9.99988 12.5C8.62154 12.5 7.49984 11.3783 7.49984 10C7.49984 8.62166 8.62154 7.49996 9.99988 7.49996C11.3782 7.49996 12.4999 8.62166 12.4999 10C12.4999 11.3783 11.3782 12.5 9.99988 12.5Z" fill="white"/>
</g>
<defs>
<clipPath id="clip0">
<rect width="20" height="20" fill="white"/>
</clipPath>
</defs>
</svg>
