<svg width="20" height="20" viewBox="0 0 20 20" fill="none" xmlns="http://www.w3.org/2000/svg">
<g clip-path="url(#clip0)">
<path d="M12.718 4.34695H14.5404C14.9309 4.34695 15.2486 4.0293 15.2486 3.63883V0.71043C15.2486 0.319961 14.9309 0.00230469 14.5404 0.00230469H12.0379C12.0139 0.00128906 11.9722 0 11.9138 0C11.4417 0 9.79967 0.093164 8.49697 1.29156C7.07506 2.59988 7.21111 4.16488 7.27096 4.55074V6.45855H5.45959C5.06916 6.45855 4.75146 6.77621 4.75146 7.16668V10.3162C4.75146 10.7068 5.06912 11.0245 5.45959 11.0245H7.16615V19.2919C7.16615 19.6823 7.48381 20 7.87428 20H11.4433C11.8338 20 12.1515 19.6823 12.1515 19.2919V11.0653H14.1729C14.5328 11.0653 14.8353 10.7956 14.8764 10.4381L15.2439 7.24777C15.267 7.04734 15.2033 6.84602 15.069 6.69543C14.9348 6.54492 14.7422 6.45859 14.5405 6.45859H12.1516V4.85715C12.1515 4.52625 12.2418 4.34695 12.718 4.34695ZM11.7532 7.25543H14.441L14.0938 10.2685H11.7531C11.5331 10.2685 11.3547 10.4468 11.3547 10.6669V19.2032H7.96291V10.626C7.96291 10.406 7.78451 10.2276 7.56451 10.2276H5.54822V7.25535H7.66936C7.88936 7.25535 8.06775 7.07699 8.06775 6.85695V4.51836C8.06775 4.49551 8.0658 4.47266 8.06189 4.45012C8.0199 4.20891 7.86979 2.95148 9.0365 1.87797C10.1269 0.874805 11.5146 0.796836 11.9139 0.796836C11.9699 0.796836 12.0032 0.79832 12.0093 0.798633C12.0158 0.798945 12.0224 0.799102 12.029 0.799102H14.4519V3.5502H12.7181C11.8644 3.5502 11.3547 4.03879 11.3547 4.85715V6.85699C11.3547 7.07707 11.5332 7.25543 11.7532 7.25543Z" fill="white"/>
<path d="M8.76485 13.4263C8.54485 13.4263 8.36646 13.6047 8.36646 13.8247V14.0239C8.36646 14.244 8.54485 14.4223 8.76485 14.4223C8.98485 14.4223 9.16325 14.244 9.16325 14.0239V13.8247C9.16325 13.6047 8.98481 13.4263 8.76485 13.4263Z" fill="white"/>
<path d="M8.76485 14.9004C8.54485 14.9004 8.36646 15.0788 8.36646 15.2988V18.3267C8.36646 18.5468 8.54485 18.7251 8.76485 18.7251C8.98485 18.7251 9.16325 18.5468 9.16325 18.3267V15.2988C9.16325 15.0788 8.98481 14.9004 8.76485 14.9004Z" fill="white"/>
</g>
<defs>
<clipPath id="clip0">
<rect width="20" height="20" fill="white"/>
</clipPath>
</defs>
</svg>
