<svg width="20" height="20" viewBox="0 0 20 20" fill="none" xmlns="http://www.w3.org/2000/svg">
<g clip-path="url(#clip0)">
<path d="M15.0495 4.76251L6.82413 9.82852C6.35866 10.1159 6.13839 10.6834 6.28835 11.2083L7.17773 14.3333C7.2537 14.5998 7.49081 14.7769 7.76362 14.7769C7.77882 14.7769 7.79417 14.7763 7.80956 14.7752C8.1012 14.754 8.33198 14.5368 8.37077 14.2473L8.60202 12.5338C8.63319 12.3032 8.74429 12.0888 8.91456 11.9302L15.7023 5.62071C15.9074 5.43052 15.9345 5.11907 15.7655 4.8963C15.5962 4.67333 15.2885 4.61567 15.0495 4.76251ZM8.37183 11.3468C8.06683 11.6308 7.86812 12.0144 7.81233 12.4271L7.70019 13.2583L7.0546 10.9899C7.00214 10.8061 7.07941 10.6074 7.2423 10.5068L13.268 6.79563L8.37183 11.3468Z" fill="white"/>
<path d="M19.6744 1.46026C19.4174 1.24244 19.0628 1.18248 18.7487 1.30381L0.588829 8.30936C0.229181 8.44807 -0.00206923 8.7867 -0.000233288 9.17205C0.00164171 9.55776 0.23629 9.89452 0.598048 10.0301L4.83985 11.6132L6.49449 16.9345C6.58535 17.2271 6.81469 17.4544 7.10789 17.5426C7.40094 17.6307 7.71742 17.5677 7.95399 17.3742L10.4204 15.3635C10.5388 15.267 10.708 15.2622 10.8316 15.352L15.2802 18.5817C15.4402 18.6981 15.6291 18.758 15.8202 18.758C15.9321 18.758 16.0447 18.7374 16.1529 18.6956C16.4453 18.5825 16.6579 18.3319 16.7216 18.0252L19.9805 2.34905C20.049 2.01897 19.9317 1.67842 19.6744 1.46026ZM19.2004 2.18713L15.9415 17.8632C15.9297 17.9199 15.8889 17.9434 15.8656 17.9524C15.8422 17.9615 15.7959 17.9715 15.7486 17.9371L11.2998 14.7072C11.101 14.5628 10.8672 14.4912 10.6338 14.4912C10.3791 14.4912 10.1249 14.5765 9.91707 14.7458L7.45012 16.7569C7.40621 16.7929 7.36063 16.7865 7.33742 16.7795C7.31406 16.7724 7.27238 16.7525 7.25543 16.698L5.54274 11.1899C5.50613 11.0723 5.41707 10.9781 5.3016 10.935L0.877189 9.2837C0.810939 9.25889 0.796837 9.20721 0.796642 9.16819C0.796447 9.12952 0.81004 9.07807 0.875665 9.05276L19.0355 2.04725C19.0356 2.04721 19.0357 2.04717 19.0359 2.04713C19.0948 2.02436 19.1385 2.05053 19.1593 2.06811C19.1801 2.08588 19.2133 2.12494 19.2004 2.18713Z" fill="white"/>
<path d="M16.6984 9.84931C16.4833 9.80259 16.2712 9.93912 16.2245 10.1542L16.1639 10.4331C16.1173 10.6481 16.2537 10.8602 16.4688 10.9069C16.4973 10.9131 16.5257 10.9161 16.5537 10.9161C16.7371 10.9161 16.9021 10.7886 16.9427 10.6021L17.0032 10.3232C17.0499 10.1082 16.9134 9.89603 16.6984 9.84931Z" fill="white"/>
<path d="M16.3001 11.6844C16.0847 11.6378 15.8728 11.7742 15.8262 11.9893L14.9098 16.21C14.8631 16.4251 14.9996 16.6372 15.2146 16.6839C15.2431 16.6901 15.2715 16.693 15.2995 16.693C15.4829 16.693 15.6479 16.5656 15.6885 16.3791L16.6049 12.1583C16.6515 11.9433 16.5151 11.7311 16.3001 11.6844Z" fill="white"/>
</g>
<defs>
<clipPath id="clip0">
<rect width="20" height="20" fill="white"/>
</clipPath>
</defs>
</svg>
