<svg xmlns="http://www.w3.org/2000/svg">
	<symbol id="fb" viewBox="0 0 20 20">
		<g clip-path="url(#clip0)">
			<path d="M12.718 4.34695H14.5404C14.9309 4.34695 15.2486 4.0293 15.2486 3.63883V0.71043C15.2486 0.319961 14.9309 0.00230469 14.5404 0.00230469H12.0379C12.0139 0.00128906 11.9722 0 11.9138 0C11.4417 0 9.79967 0.093164 8.49697 1.29156C7.07506 2.59988 7.21111 4.16488 7.27096 4.55074V6.45855H5.45959C5.06916 6.45855 4.75146 6.77621 4.75146 7.16668V10.3162C4.75146 10.7068 5.06912 11.0245 5.45959 11.0245H7.16615V19.2919C7.16615 19.6823 7.48381 20 7.87428 20H11.4433C11.8338 20 12.1515 19.6823 12.1515 19.2919V11.0653H14.1729C14.5328 11.0653 14.8353 10.7956 14.8764 10.4381L15.2439 7.24777C15.267 7.04734 15.2033 6.84602 15.069 6.69543C14.9348 6.54492 14.7422 6.45859 14.5405 6.45859H12.1516V4.85715C12.1515 4.52625 12.2418 4.34695 12.718 4.34695ZM11.7532 7.25543H14.441L14.0938 10.2685H11.7531C11.5331 10.2685 11.3547 10.4468 11.3547 10.6669V19.2032H7.96291V10.626C7.96291 10.406 7.78451 10.2276 7.56451 10.2276H5.54822V7.25535H7.66936C7.88936 7.25535 8.06775 7.07699 8.06775 6.85695V4.51836C8.06775 4.49551 8.0658 4.47266 8.06189 4.45012C8.0199 4.20891 7.86979 2.95148 9.0365 1.87797C10.1269 0.874805 11.5146 0.796836 11.9139 0.796836C11.9699 0.796836 12.0032 0.79832 12.0093 0.798633C12.0158 0.798945 12.0224 0.799102 12.029 0.799102H14.4519V3.5502H12.7181C11.8644 3.5502 11.3547 4.03879 11.3547 4.85715V6.85699C11.3547 7.07707 11.5332 7.25543 11.7532 7.25543Z" fill="white"/>
			<path d="M8.76485 13.4263C8.54485 13.4263 8.36646 13.6047 8.36646 13.8247V14.0239C8.36646 14.244 8.54485 14.4223 8.76485 14.4223C8.98485 14.4223 9.16325 14.244 9.16325 14.0239V13.8247C9.16325 13.6047 8.98481 13.4263 8.76485 13.4263Z" fill="white"/>
			<path d="M8.76485 14.9004C8.54485 14.9004 8.36646 15.0788 8.36646 15.2988V18.3267C8.36646 18.5468 8.54485 18.7251 8.76485 18.7251C8.98485 18.7251 9.16325 18.5468 9.16325 18.3267V15.2988C9.16325 15.0788 8.98481 14.9004 8.76485 14.9004Z" fill="white"/>
		</g>
	</symbol>
	<symbol id="fb-hover" viewBox="0 0 20 20">
		<g clip-path="url(#clip0)">
			<path d="M12.718 4.34695H14.5404C14.9309 4.34695 15.2486 4.0293 15.2486 3.63883V0.71043C15.2486 0.319961 14.9309 0.00230469 14.5404 0.00230469H12.0379C12.0139 0.00128906 11.9722 0 11.9138 0C11.4417 0 9.79967 0.093164 8.49697 1.29156C7.07506 2.59988 7.21111 4.16488 7.27096 4.55074V6.45855H5.45959C5.06916 6.45855 4.75146 6.77621 4.75146 7.16668V10.3162C4.75146 10.7068 5.06912 11.0245 5.45959 11.0245H7.16615V19.2919C7.16615 19.6823 7.48381 20 7.87428 20H11.4433C11.8338 20 12.1515 19.6823 12.1515 19.2919V11.0653H14.1729C14.5328 11.0653 14.8353 10.7956 14.8764 10.4381L15.2439 7.24777C15.267 7.04734 15.2033 6.84602 15.069 6.69543C14.9348 6.54492 14.7422 6.45859 14.5405 6.45859H12.1516V4.85715C12.1515 4.52625 12.2418 4.34695 12.718 4.34695ZM11.7532 7.25543H14.441L14.0938 10.2685H11.7531C11.5331 10.2685 11.3547 10.4468 11.3547 10.6669V19.2032H7.96291V10.626C7.96291 10.406 7.78451 10.2276 7.56451 10.2276H5.54822V7.25535H7.66936C7.88936 7.25535 8.06775 7.07699 8.06775 6.85695V4.51836C8.06775 4.49551 8.0658 4.47266 8.06189 4.45012C8.0199 4.20891 7.86979 2.95148 9.0365 1.87797C10.1269 0.874805 11.5146 0.796836 11.9139 0.796836C11.9699 0.796836 12.0032 0.79832 12.0093 0.798633C12.0158 0.798945 12.0224 0.799102 12.029 0.799102H14.4519V3.5502H12.7181C11.8644 3.5502 11.3547 4.03879 11.3547 4.85715V6.85699C11.3547 7.07707 11.5332 7.25543 11.7532 7.25543Z" fill="#7BF7FF"/>
			<path d="M8.76485 13.4263C8.54485 13.4263 8.36646 13.6047 8.36646 13.8247V14.0239C8.36646 14.244 8.54485 14.4223 8.76485 14.4223C8.98485 14.4223 9.16325 14.244 9.16325 14.0239V13.8247C9.16325 13.6047 8.98481 13.4263 8.76485 13.4263Z" fill="#7BF7FF"/>
			<path d="M8.76485 14.9004C8.54485 14.9004 8.36646 15.0788 8.36646 15.2988V18.3267C8.36646 18.5468 8.54485 18.7251 8.76485 18.7251C8.98485 18.7251 9.16325 18.5468 9.16325 18.3267V15.2988C9.16325 15.0788 8.98481 14.9004 8.76485 14.9004Z" fill="#7BF7FF"/>
		</g>
	</symbol>
	<symbol id="fb-black" viewBox="0 0 20 20">
		<g clip-path="url(#clip0)">
			<path d="M12.718 4.34695H14.5404C14.9309 4.34695 15.2486 4.0293 15.2486 3.63883V0.71043C15.2486 0.319961 14.9309 0.00230469 14.5404 0.00230469H12.0379C12.0139 0.00128906 11.9722 0 11.9138 0C11.4417 0 9.79967 0.093164 8.49697 1.29156C7.07506 2.59988 7.21111 4.16488 7.27096 4.55074V6.45855H5.45959C5.06916 6.45855 4.75146 6.77621 4.75146 7.16668V10.3162C4.75146 10.7068 5.06912 11.0245 5.45959 11.0245H7.16615V19.2919C7.16615 19.6823 7.48381 20 7.87428 20H11.4433C11.8338 20 12.1515 19.6823 12.1515 19.2919V11.0653H14.1729C14.5328 11.0653 14.8353 10.7956 14.8764 10.4381L15.2439 7.24777C15.267 7.04734 15.2033 6.84602 15.069 6.69543C14.9348 6.54492 14.7422 6.45859 14.5405 6.45859H12.1516V4.85715C12.1515 4.52625 12.2418 4.34695 12.718 4.34695ZM11.7532 7.25543H14.441L14.0938 10.2685H11.7531C11.5331 10.2685 11.3547 10.4468 11.3547 10.6669V19.2032H7.96291V10.626C7.96291 10.406 7.78451 10.2276 7.56451 10.2276H5.54822V7.25535H7.66936C7.88936 7.25535 8.06775 7.07699 8.06775 6.85695V4.51836C8.06775 4.49551 8.0658 4.47266 8.06189 4.45012C8.0199 4.20891 7.86979 2.95148 9.0365 1.87797C10.1269 0.874805 11.5146 0.796836 11.9139 0.796836C11.9699 0.796836 12.0032 0.79832 12.0093 0.798633C12.0158 0.798945 12.0224 0.799102 12.029 0.799102H14.4519V3.5502H12.7181C11.8644 3.5502 11.3547 4.03879 11.3547 4.85715V6.85699C11.3547 7.07707 11.5332 7.25543 11.7532 7.25543Z" fill="black"/>
			<path d="M8.76485 13.4263C8.54485 13.4263 8.36646 13.6047 8.36646 13.8247V14.0239C8.36646 14.244 8.54485 14.4223 8.76485 14.4223C8.98485 14.4223 9.16325 14.244 9.16325 14.0239V13.8247C9.16325 13.6047 8.98481 13.4263 8.76485 13.4263Z" fill="black"/>
			<path d="M8.76485 14.9004C8.54485 14.9004 8.36646 15.0788 8.36646 15.2988V18.3267C8.36646 18.5468 8.54485 18.7251 8.76485 18.7251C8.98485 18.7251 9.16325 18.5468 9.16325 18.3267V15.2988C9.16325 15.0788 8.98481 14.9004 8.76485 14.9004Z" fill="black"/>
		</g>
	</symbol>
	<symbol id="vk" viewBox="0 0 20 20">
		<g clip-path="url(#clip0)">
			<path d="M19.1121 13.1126C18.677 12.5912 18.1855 12.1257 17.7102 11.6755C17.5431 11.5173 17.3703 11.3537 17.2039 11.1912C17.2039 11.1912 17.2038 11.1911 17.2038 11.1911C16.98 10.9728 16.8704 10.8178 16.859 10.7033C16.8477 10.5908 16.9246 10.4239 17.1014 10.1772C17.3658 9.80611 17.6477 9.43439 17.9203 9.07493C18.1627 8.7554 18.4132 8.42497 18.6534 8.09266L18.7073 8.01805C19.1758 7.36954 19.6603 6.69895 19.9199 5.88176C19.9941 5.64746 20.071 5.30074 19.8853 4.99636C19.6996 4.69191 19.3551 4.60167 19.1124 4.56035C18.9939 4.54003 18.8814 4.53835 18.7767 4.53835L15.7374 4.53566C15.2119 4.52691 14.8474 4.77597 14.6487 5.27613C14.4897 5.67558 14.3019 6.13852 14.0844 6.57766C13.6682 7.42544 13.1393 8.40188 12.3727 9.21544L12.3387 9.25169C12.2865 9.3074 12.2012 9.39849 12.1574 9.41939C12.0744 9.3672 11.9786 9.06872 11.9829 8.91236C11.9831 8.90849 11.9831 8.90466 11.9831 8.90083L11.9804 5.38898C11.9804 5.37113 11.9791 5.35328 11.9768 5.33558C11.9086 4.83457 11.7757 4.3323 10.9827 4.17581C10.9573 4.17077 10.9314 4.16827 10.9056 4.16827H7.74405C7.14924 4.16827 6.83463 4.44066 6.58241 4.73597C6.5094 4.82207 6.31541 5.05066 6.41424 5.33011C6.51424 5.61289 6.81221 5.66933 6.91003 5.68785C7.25456 5.75324 7.43272 5.94797 7.48788 6.32024C7.5969 7.04356 7.61026 7.81735 7.52999 8.75419C7.50761 9.00572 7.46596 9.19689 7.39878 9.35587C7.38018 9.3999 7.36385 9.42716 7.35245 9.44322C7.33425 9.43587 7.30592 9.42181 7.26671 9.39497C7.0246 9.22931 6.84213 8.97177 6.66569 8.72278C5.96092 7.72774 5.36811 6.62875 4.85314 5.36254C4.64107 4.84367 4.2424 4.55386 3.7313 4.54636C2.75755 4.53015 1.85696 4.53054 0.978989 4.54761C0.564886 4.5548 0.274494 4.68515 0.115744 4.93511C-0.0432019 5.18554 -0.0373816 5.50484 0.133088 5.8843C1.35169 8.59407 2.45817 10.5653 3.72068 12.276C4.60963 13.4804 5.50447 14.3164 6.53678 14.9071C7.6214 15.5276 8.8446 15.8317 10.2637 15.8316C10.425 15.8316 10.5892 15.8277 10.7556 15.8198C11.6311 15.7799 11.9873 15.4316 12.0262 14.5789C12.048 14.1283 12.0981 13.7632 12.2722 13.446C12.3208 13.3572 12.3757 13.2977 12.419 13.2868C12.465 13.2753 12.5466 13.3035 12.6374 13.3624C12.8033 13.4701 12.9461 13.6162 13.0636 13.7445C13.1827 13.8748 13.303 14.0095 13.4194 14.1397C13.6672 14.4169 13.9234 14.7036 14.1918 14.977C14.799 15.5959 15.4989 15.8798 16.273 15.8203L19.0545 15.8216C19.0546 15.8216 19.0546 15.8216 19.0546 15.8216C19.0635 15.8216 19.0723 15.8213 19.0811 15.8207C19.4019 15.7994 19.6793 15.6218 19.8422 15.3333C20.0384 14.986 20.0354 14.546 19.8341 14.156C19.6241 13.7505 19.3517 13.4014 19.1121 13.1126ZM19.1484 14.9416C19.1101 15.0095 19.0628 15.0219 19.0383 15.0248L16.2575 15.0236C16.2574 15.0236 16.2573 15.0236 16.2572 15.0236C16.2462 15.0236 16.2353 15.024 16.2244 15.0249C15.6765 15.0705 15.2108 14.878 14.7605 14.419C14.5051 14.1587 14.2552 13.8792 14.0135 13.6088C13.8957 13.477 13.774 13.3407 13.6516 13.2068C13.4999 13.0411 13.3124 12.8507 13.0714 12.6942C12.7106 12.46 12.4116 12.4671 12.2244 12.5143C12.0391 12.561 11.7757 12.6942 11.5736 13.0631C11.3117 13.5404 11.2539 14.0553 11.2304 14.5418C11.2168 14.8393 11.1665 14.9178 11.1455 14.9378C11.118 14.964 11.0259 15.01 10.7189 15.024C9.24324 15.0934 8.00487 14.8291 6.93249 14.2156C5.99959 13.6818 5.18271 12.9151 4.36181 11.803C3.13427 10.1397 2.05419 8.21364 0.859848 5.55777C0.816567 5.46156 0.803207 5.40152 0.79934 5.36937C0.829809 5.35937 0.88934 5.34621 0.993716 5.34429C1.86278 5.32746 2.75396 5.32699 3.71892 5.34308C3.85103 5.34504 4.00146 5.38468 4.11537 5.6634C4.65342 6.98641 5.27494 8.13778 6.01557 9.18341C6.21221 9.46095 6.45698 9.80642 6.8167 10.0526C7.1462 10.2782 7.41358 10.2674 7.57991 10.2186C7.74632 10.1699 7.97726 10.0343 8.1328 9.66603C8.23316 9.42865 8.29382 9.16134 8.32386 8.82361C8.40968 7.82153 8.39444 6.9884 8.27601 6.20258C8.19253 5.63957 7.90183 5.23285 7.44389 5.02515C7.52522 4.98281 7.61686 4.96515 7.74413 4.96515H10.8643C11.0399 5.00453 11.0746 5.05078 11.0866 5.0666C11.1371 5.13382 11.166 5.29285 11.1837 5.41711L11.1863 8.89657C11.1793 9.23013 11.3414 9.9699 11.8934 10.1728C11.8979 10.1744 11.9025 10.176 11.907 10.1775C12.4095 10.3417 12.7419 9.98697 12.9204 9.79638L12.9522 9.76255C13.7918 8.87134 14.3573 7.83001 14.799 6.9302C15.0293 6.46555 15.2243 5.98492 15.3892 5.57062C15.4717 5.36285 15.5467 5.32863 15.7259 5.33242C15.7283 5.3325 15.7308 5.3325 15.7333 5.3325L18.7764 5.33519C18.8472 5.33519 18.9211 5.33601 18.9784 5.34582C19.1234 5.37051 19.1831 5.40058 19.2028 5.41304C19.2048 5.43613 19.2044 5.50254 19.1605 5.64113C18.9398 6.33602 18.5132 6.92641 18.0616 7.55149L18.0076 7.62622C17.773 7.95091 17.5252 8.27759 17.2856 8.59356C17.0095 8.95767 16.724 9.33411 16.4533 9.71404C15.8747 10.5214 15.9255 11.0572 16.6477 11.7616C16.8183 11.9282 16.9933 12.0939 17.1625 12.2541C17.6422 12.7085 18.0954 13.1377 18.4998 13.6223C18.7115 13.8776 18.9515 14.1841 19.1264 14.5219C19.2177 14.6987 19.1953 14.8585 19.1484 14.9416Z" fill="white"/>
			<path d="M2.90574 6.62641C2.84722 6.51063 2.78921 6.39453 2.73175 6.2782C2.63425 6.08098 2.3955 5.99996 2.19812 6.09746C2.00085 6.19492 1.91991 6.43383 2.01737 6.6311C2.07593 6.74961 2.13503 6.86789 2.1946 6.98582C2.26472 7.12457 2.40499 7.20458 2.55046 7.20458C2.61085 7.20458 2.67222 7.19079 2.72984 7.16168C2.92628 7.06239 3.00499 6.82278 2.90574 6.62641Z" fill="white"/>
			<path d="M5.40432 10.7594C4.75104 9.87432 4.13986 8.91295 3.53596 7.82041C3.42951 7.62783 3.18709 7.55806 2.99455 7.66447C2.80201 7.77091 2.73216 8.01334 2.83861 8.20588C3.45955 9.32916 4.08912 10.3192 4.76326 11.2326C4.84139 11.3385 4.96198 11.3945 5.08412 11.3945C5.16631 11.3945 5.2492 11.3692 5.32038 11.3165C5.49737 11.1859 5.53495 10.9365 5.40432 10.7594Z" fill="white"/>
		</g>
	</symbol>
	<symbol id="vk-hover" viewBox="0 0 20 20">
		<g clip-path="url(#clip0)">
			<path d="M19.1121 13.1126C18.677 12.5912 18.1855 12.1257 17.7102 11.6755C17.5431 11.5173 17.3703 11.3537 17.2039 11.1912C17.2039 11.1912 17.2038 11.1911 17.2038 11.1911C16.98 10.9728 16.8704 10.8178 16.859 10.7033C16.8477 10.5908 16.9246 10.4239 17.1014 10.1772C17.3658 9.80611 17.6477 9.43439 17.9203 9.07493C18.1627 8.7554 18.4132 8.42497 18.6534 8.09266L18.7073 8.01805C19.1758 7.36954 19.6603 6.69895 19.9199 5.88176C19.9941 5.64746 20.071 5.30074 19.8853 4.99636C19.6996 4.69191 19.3551 4.60167 19.1124 4.56035C18.9939 4.54003 18.8814 4.53835 18.7767 4.53835L15.7374 4.53566C15.2119 4.52691 14.8474 4.77597 14.6487 5.27613C14.4897 5.67558 14.3019 6.13852 14.0844 6.57766C13.6682 7.42544 13.1393 8.40188 12.3727 9.21544L12.3387 9.25169C12.2865 9.3074 12.2012 9.39849 12.1574 9.41939C12.0744 9.3672 11.9786 9.06872 11.9829 8.91236C11.9831 8.90849 11.9831 8.90466 11.9831 8.90083L11.9804 5.38898C11.9804 5.37113 11.9791 5.35328 11.9768 5.33558C11.9086 4.83457 11.7757 4.3323 10.9827 4.17581C10.9573 4.17077 10.9314 4.16827 10.9056 4.16827H7.74405C7.14924 4.16827 6.83463 4.44066 6.58241 4.73597C6.5094 4.82207 6.31541 5.05066 6.41424 5.33011C6.51424 5.61289 6.81221 5.66933 6.91003 5.68785C7.25456 5.75324 7.43272 5.94797 7.48788 6.32024C7.5969 7.04356 7.61026 7.81735 7.52999 8.75419C7.50761 9.00572 7.46596 9.19689 7.39878 9.35587C7.38018 9.3999 7.36385 9.42716 7.35245 9.44322C7.33425 9.43587 7.30592 9.42181 7.26671 9.39497C7.0246 9.22931 6.84213 8.97177 6.66569 8.72278C5.96092 7.72774 5.36811 6.62875 4.85314 5.36254C4.64107 4.84367 4.2424 4.55386 3.7313 4.54636C2.75755 4.53015 1.85696 4.53054 0.978989 4.54761C0.564886 4.5548 0.274494 4.68515 0.115744 4.93511C-0.0432019 5.18554 -0.0373816 5.50484 0.133088 5.8843C1.35169 8.59407 2.45817 10.5653 3.72068 12.276C4.60963 13.4804 5.50447 14.3164 6.53678 14.9071C7.6214 15.5276 8.8446 15.8317 10.2637 15.8316C10.425 15.8316 10.5892 15.8277 10.7556 15.8198C11.6311 15.7799 11.9873 15.4316 12.0262 14.5789C12.048 14.1283 12.0981 13.7632 12.2722 13.446C12.3208 13.3572 12.3757 13.2977 12.419 13.2868C12.465 13.2753 12.5466 13.3035 12.6374 13.3624C12.8033 13.4701 12.9461 13.6162 13.0636 13.7445C13.1827 13.8748 13.303 14.0095 13.4194 14.1397C13.6672 14.4169 13.9234 14.7036 14.1918 14.977C14.799 15.5959 15.4989 15.8798 16.273 15.8203L19.0545 15.8216C19.0546 15.8216 19.0546 15.8216 19.0546 15.8216C19.0635 15.8216 19.0723 15.8213 19.0811 15.8207C19.4019 15.7994 19.6793 15.6218 19.8422 15.3333C20.0384 14.986 20.0354 14.546 19.8341 14.156C19.6241 13.7505 19.3517 13.4014 19.1121 13.1126ZM19.1484 14.9416C19.1101 15.0095 19.0628 15.0219 19.0383 15.0248L16.2575 15.0236C16.2574 15.0236 16.2573 15.0236 16.2572 15.0236C16.2462 15.0236 16.2353 15.024 16.2244 15.0249C15.6765 15.0705 15.2108 14.878 14.7605 14.419C14.5051 14.1587 14.2552 13.8792 14.0135 13.6088C13.8957 13.477 13.774 13.3407 13.6516 13.2068C13.4999 13.0411 13.3124 12.8507 13.0714 12.6942C12.7106 12.46 12.4116 12.4671 12.2244 12.5143C12.0391 12.561 11.7757 12.6942 11.5736 13.0631C11.3117 13.5404 11.2539 14.0553 11.2304 14.5418C11.2168 14.8393 11.1665 14.9178 11.1455 14.9378C11.118 14.964 11.0259 15.01 10.7189 15.024C9.24324 15.0934 8.00487 14.8291 6.93249 14.2156C5.99959 13.6818 5.18271 12.9151 4.36181 11.803C3.13427 10.1397 2.05419 8.21364 0.859848 5.55777C0.816567 5.46156 0.803207 5.40152 0.79934 5.36937C0.829809 5.35937 0.88934 5.34621 0.993716 5.34429C1.86278 5.32746 2.75396 5.32699 3.71892 5.34308C3.85103 5.34504 4.00146 5.38468 4.11537 5.6634C4.65342 6.98641 5.27494 8.13778 6.01557 9.18341C6.21221 9.46095 6.45698 9.80642 6.8167 10.0526C7.1462 10.2782 7.41358 10.2674 7.57991 10.2186C7.74632 10.1699 7.97726 10.0343 8.1328 9.66603C8.23316 9.42865 8.29382 9.16134 8.32386 8.82361C8.40968 7.82153 8.39444 6.9884 8.27601 6.20258C8.19253 5.63957 7.90183 5.23285 7.44389 5.02515C7.52522 4.98281 7.61686 4.96515 7.74413 4.96515H10.8643C11.0399 5.00453 11.0746 5.05078 11.0866 5.0666C11.1371 5.13382 11.166 5.29285 11.1837 5.41711L11.1863 8.89657C11.1793 9.23013 11.3414 9.9699 11.8934 10.1728C11.8979 10.1744 11.9025 10.176 11.907 10.1775C12.4095 10.3417 12.7419 9.98697 12.9204 9.79638L12.9522 9.76255C13.7918 8.87134 14.3573 7.83001 14.799 6.9302C15.0293 6.46555 15.2243 5.98492 15.3892 5.57062C15.4717 5.36285 15.5467 5.32863 15.7259 5.33242C15.7283 5.3325 15.7308 5.3325 15.7333 5.3325L18.7764 5.33519C18.8472 5.33519 18.9211 5.33601 18.9784 5.34582C19.1234 5.37051 19.1831 5.40058 19.2028 5.41304C19.2048 5.43613 19.2044 5.50254 19.1605 5.64113C18.9398 6.33602 18.5132 6.92641 18.0616 7.55149L18.0076 7.62622C17.773 7.95091 17.5252 8.27759 17.2856 8.59356C17.0095 8.95767 16.724 9.33411 16.4533 9.71404C15.8747 10.5214 15.9255 11.0572 16.6477 11.7616C16.8183 11.9282 16.9933 12.0939 17.1625 12.2541C17.6422 12.7085 18.0954 13.1377 18.4998 13.6223C18.7115 13.8776 18.9515 14.1841 19.1264 14.5219C19.2177 14.6987 19.1953 14.8585 19.1484 14.9416Z" fill="#7BF7FF"/>
			<path d="M2.90574 6.62641C2.84722 6.51063 2.78921 6.39453 2.73175 6.2782C2.63425 6.08098 2.3955 5.99996 2.19812 6.09746C2.00085 6.19492 1.91991 6.43383 2.01737 6.6311C2.07593 6.74961 2.13503 6.86789 2.1946 6.98582C2.26472 7.12457 2.40499 7.20458 2.55046 7.20458C2.61085 7.20458 2.67222 7.19079 2.72984 7.16168C2.92628 7.06239 3.00499 6.82278 2.90574 6.62641Z" fill="#7BF7FF"/>
			<path d="M5.40432 10.7594C4.75104 9.87432 4.13986 8.91295 3.53596 7.82041C3.42951 7.62783 3.18709 7.55806 2.99455 7.66447C2.80201 7.77091 2.73216 8.01334 2.83861 8.20588C3.45955 9.32916 4.08912 10.3192 4.76326 11.2326C4.84139 11.3385 4.96198 11.3945 5.08412 11.3945C5.16631 11.3945 5.2492 11.3692 5.32038 11.3165C5.49737 11.1859 5.53495 10.9365 5.40432 10.7594Z" fill="#7BF7FF"/>
		</g>
	</symbol>
	<symbol id="vk-black" viewBox="0 0 20 20">
		<g clip-path="url(#clip0)">
			<path d="M19.1121 13.1126C18.677 12.5912 18.1855 12.1257 17.7102 11.6755C17.5431 11.5173 17.3703 11.3537 17.2039 11.1912C17.2039 11.1912 17.2038 11.1911 17.2038 11.1911C16.98 10.9728 16.8704 10.8178 16.859 10.7033C16.8477 10.5908 16.9246 10.4239 17.1014 10.1772C17.3658 9.80611 17.6477 9.43439 17.9203 9.07493C18.1627 8.7554 18.4132 8.42497 18.6534 8.09266L18.7073 8.01805C19.1758 7.36954 19.6603 6.69895 19.9199 5.88176C19.9941 5.64746 20.071 5.30074 19.8853 4.99636C19.6996 4.69191 19.3551 4.60167 19.1124 4.56035C18.9939 4.54003 18.8814 4.53835 18.7767 4.53835L15.7374 4.53566C15.2119 4.52691 14.8474 4.77597 14.6487 5.27613C14.4897 5.67558 14.3019 6.13852 14.0844 6.57766C13.6682 7.42544 13.1393 8.40188 12.3727 9.21544L12.3387 9.25169C12.2865 9.3074 12.2012 9.39849 12.1574 9.41939C12.0744 9.3672 11.9786 9.06872 11.9829 8.91236C11.9831 8.90849 11.9831 8.90466 11.9831 8.90083L11.9804 5.38898C11.9804 5.37113 11.9791 5.35328 11.9768 5.33558C11.9086 4.83457 11.7757 4.3323 10.9827 4.17581C10.9573 4.17077 10.9314 4.16827 10.9056 4.16827H7.74405C7.14924 4.16827 6.83463 4.44066 6.58241 4.73597C6.5094 4.82207 6.31541 5.05066 6.41424 5.33011C6.51424 5.61289 6.81221 5.66933 6.91003 5.68785C7.25456 5.75324 7.43272 5.94797 7.48788 6.32024C7.5969 7.04356 7.61026 7.81735 7.52999 8.75419C7.50761 9.00572 7.46596 9.19689 7.39878 9.35587C7.38018 9.3999 7.36385 9.42716 7.35245 9.44322C7.33425 9.43587 7.30592 9.42181 7.26671 9.39497C7.0246 9.22931 6.84213 8.97177 6.66569 8.72278C5.96092 7.72774 5.36811 6.62875 4.85314 5.36254C4.64107 4.84367 4.2424 4.55386 3.7313 4.54636C2.75755 4.53015 1.85696 4.53054 0.978989 4.54761C0.564886 4.5548 0.274494 4.68515 0.115744 4.93511C-0.0432019 5.18554 -0.0373816 5.50484 0.133088 5.8843C1.35169 8.59407 2.45817 10.5653 3.72068 12.276C4.60963 13.4804 5.50447 14.3164 6.53678 14.9071C7.6214 15.5276 8.8446 15.8317 10.2637 15.8316C10.425 15.8316 10.5892 15.8277 10.7556 15.8198C11.6311 15.7799 11.9873 15.4316 12.0262 14.5789C12.048 14.1283 12.0981 13.7632 12.2722 13.446C12.3208 13.3572 12.3757 13.2977 12.419 13.2868C12.465 13.2753 12.5466 13.3035 12.6374 13.3624C12.8033 13.4701 12.9461 13.6162 13.0636 13.7445C13.1827 13.8748 13.303 14.0095 13.4194 14.1397C13.6672 14.4169 13.9234 14.7036 14.1918 14.977C14.799 15.5959 15.4989 15.8798 16.273 15.8203L19.0545 15.8216C19.0546 15.8216 19.0546 15.8216 19.0546 15.8216C19.0635 15.8216 19.0723 15.8213 19.0811 15.8207C19.4019 15.7994 19.6793 15.6218 19.8422 15.3333C20.0384 14.986 20.0354 14.546 19.8341 14.156C19.6241 13.7505 19.3517 13.4014 19.1121 13.1126ZM19.1484 14.9416C19.1101 15.0095 19.0628 15.0219 19.0383 15.0248L16.2575 15.0236C16.2574 15.0236 16.2573 15.0236 16.2572 15.0236C16.2462 15.0236 16.2353 15.024 16.2244 15.0249C15.6765 15.0705 15.2108 14.878 14.7605 14.419C14.5051 14.1587 14.2552 13.8792 14.0135 13.6088C13.8957 13.477 13.774 13.3407 13.6516 13.2068C13.4999 13.0411 13.3124 12.8507 13.0714 12.6942C12.7106 12.46 12.4116 12.4671 12.2244 12.5143C12.0391 12.561 11.7757 12.6942 11.5736 13.0631C11.3117 13.5404 11.2539 14.0553 11.2304 14.5418C11.2168 14.8393 11.1665 14.9178 11.1455 14.9378C11.118 14.964 11.0259 15.01 10.7189 15.024C9.24324 15.0934 8.00487 14.8291 6.93249 14.2156C5.99959 13.6818 5.18271 12.9151 4.36181 11.803C3.13427 10.1397 2.05419 8.21364 0.859848 5.55777C0.816567 5.46156 0.803207 5.40152 0.79934 5.36937C0.829809 5.35937 0.88934 5.34621 0.993716 5.34429C1.86278 5.32746 2.75396 5.32699 3.71892 5.34308C3.85103 5.34504 4.00146 5.38468 4.11537 5.6634C4.65342 6.98641 5.27494 8.13778 6.01557 9.18341C6.21221 9.46095 6.45698 9.80642 6.8167 10.0526C7.1462 10.2782 7.41358 10.2674 7.57991 10.2186C7.74632 10.1699 7.97726 10.0343 8.1328 9.66603C8.23316 9.42865 8.29382 9.16134 8.32386 8.82361C8.40968 7.82153 8.39444 6.9884 8.27601 6.20258C8.19253 5.63957 7.90183 5.23285 7.44389 5.02515C7.52522 4.98281 7.61686 4.96515 7.74413 4.96515H10.8643C11.0399 5.00453 11.0746 5.05078 11.0866 5.0666C11.1371 5.13382 11.166 5.29285 11.1837 5.41711L11.1863 8.89657C11.1793 9.23013 11.3414 9.9699 11.8934 10.1728C11.8979 10.1744 11.9025 10.176 11.907 10.1775C12.4095 10.3417 12.7419 9.98697 12.9204 9.79638L12.9522 9.76255C13.7918 8.87134 14.3573 7.83001 14.799 6.9302C15.0293 6.46555 15.2243 5.98492 15.3892 5.57062C15.4717 5.36285 15.5467 5.32863 15.7259 5.33242C15.7283 5.3325 15.7308 5.3325 15.7333 5.3325L18.7764 5.33519C18.8472 5.33519 18.9211 5.33601 18.9784 5.34582C19.1234 5.37051 19.1831 5.40058 19.2028 5.41304C19.2048 5.43613 19.2044 5.50254 19.1605 5.64113C18.9398 6.33602 18.5132 6.92641 18.0616 7.55149L18.0076 7.62622C17.773 7.95091 17.5252 8.27759 17.2856 8.59356C17.0095 8.95767 16.724 9.33411 16.4533 9.71404C15.8747 10.5214 15.9255 11.0572 16.6477 11.7616C16.8183 11.9282 16.9933 12.0939 17.1625 12.2541C17.6422 12.7085 18.0954 13.1377 18.4998 13.6223C18.7115 13.8776 18.9515 14.1841 19.1264 14.5219C19.2177 14.6987 19.1953 14.8585 19.1484 14.9416Z" fill="black"/>
			<path d="M2.90574 6.62641C2.84722 6.51063 2.78921 6.39453 2.73175 6.2782C2.63425 6.08098 2.3955 5.99996 2.19812 6.09746C2.00085 6.19492 1.91991 6.43383 2.01737 6.6311C2.07593 6.74961 2.13503 6.86789 2.1946 6.98582C2.26472 7.12457 2.40499 7.20458 2.55046 7.20458C2.61085 7.20458 2.67222 7.19079 2.72984 7.16168C2.92628 7.06239 3.00499 6.82278 2.90574 6.62641Z" fill="black"/>
			<path d="M5.40432 10.7594C4.75104 9.87432 4.13986 8.91295 3.53596 7.82041C3.42951 7.62783 3.18709 7.55806 2.99455 7.66447C2.80201 7.77091 2.73216 8.01334 2.83861 8.20588C3.45955 9.32916 4.08912 10.3192 4.76326 11.2326C4.84139 11.3385 4.96198 11.3945 5.08412 11.3945C5.16631 11.3945 5.2492 11.3692 5.32038 11.3165C5.49737 11.1859 5.53495 10.9365 5.40432 10.7594Z" fill="black"/>
		</g>
	</symbol>
	<symbol id="ytb" viewBox="0 0 20 20">
		<g>
			<path d="M19.7997 5.7596C19.7997 5.69281 19.5993 4.22373 18.965 3.52256C18.197 2.68785 17.3623 2.58768 16.9282 2.55427H16.7947C14.0902 2.35393 10.0501 2.32056 9.98335 2.32056C9.94998 2.32056 5.87651 2.35393 3.20538 2.62106H3.10521C2.63771 2.65443 1.803 2.7546 1.06846 3.58931C0.400668 4.29048 0.200334 5.79298 0.200334 5.85977C0.200334 5.85977 0 7.56261 0 9.26544V10.8347C0 12.5042 0.200334 14.207 0.200334 14.2404C0.200334 14.3072 0.400668 15.7763 1.03504 16.4775C1.73621 17.2788 2.57092 17.379 3.10517 17.4457C3.20534 17.4457 3.27213 17.4457 3.3723 17.4791C4.90818 17.6127 9.78298 17.6795 9.98331 17.6795C10.0167 17.6795 14.0902 17.6795 16.7947 17.379H16.8948C17.3623 17.3456 18.197 17.2454 18.9315 16.4107C19.5993 15.7095 19.7997 14.207 19.7997 14.1402C19.7997 14.1402 20 12.4374 20 10.7345V9.16528C20 7.49582 19.7997 5.79298 19.7997 5.7596ZM19.3322 10.8013C19.3322 12.4708 19.1319 14.1402 19.1319 14.1402C19.0651 14.5075 18.8647 15.5759 18.4307 16.0434C17.8631 16.7112 17.1953 16.7779 16.828 16.8113H16.7279C14.0567 17.0117 10.0167 17.0117 9.98331 17.0117C9.94994 17.0117 4.94159 16.9449 3.47247 16.778C3.3723 16.778 3.27213 16.7446 3.17196 16.7446C2.70451 16.7112 2.03675 16.611 1.5025 16.01C1.10184 15.576 0.868126 14.5075 0.834711 14.1402C0.834711 14.1069 0.634377 12.4374 0.634377 10.8014V9.23207C0.634377 7.56261 0.834711 5.89319 0.834711 5.89319C0.868087 5.5259 1.10184 4.45748 1.5025 3.99002C2.1035 3.32222 2.73788 3.25543 3.13855 3.22206H3.23872C5.90985 3.02172 9.9499 2.98835 9.98327 2.98835C10.0166 2.98835 14.0567 3.02172 16.7278 3.22206H16.8614C17.2287 3.25543 17.8964 3.32222 18.464 3.99002C18.8647 4.45748 19.065 5.5259 19.1318 5.89319C19.1652 5.95998 19.3322 7.6294 19.3322 9.23207V10.8013H19.3322Z" fill="white"/>
			<path d="M14.157 10.0334L7.81309 6.32722C7.71292 6.26043 7.57938 6.26043 7.47921 6.32722C7.37905 6.39401 7.31226 6.49418 7.31226 6.62772V13.8731C7.31226 14.0067 7.37905 14.1068 7.47921 14.1736C7.546 14.207 7.57938 14.207 7.64617 14.207C7.71296 14.207 7.74634 14.207 7.81313 14.1736L14.157 10.6344C14.2572 10.5676 14.324 10.4674 14.324 10.3339C14.324 10.2004 14.2572 10.1002 14.157 10.0334ZM7.98005 13.3055V7.19531L13.3223 10.3339L7.98005 13.3055Z" fill="white"/>
		</g>
		
	</symbol>
	<symbol id="ytb-hover" viewBox="0 0 20 20">
		<g>
			<path d="M19.7997 5.7596C19.7997 5.69281 19.5993 4.22373 18.965 3.52256C18.197 2.68785 17.3623 2.58768 16.9282 2.55427H16.7947C14.0902 2.35393 10.0501 2.32056 9.98335 2.32056C9.94998 2.32056 5.87651 2.35393 3.20538 2.62106H3.10521C2.63771 2.65443 1.803 2.7546 1.06846 3.58931C0.400668 4.29048 0.200334 5.79298 0.200334 5.85977C0.200334 5.85977 0 7.56261 0 9.26544V10.8347C0 12.5042 0.200334 14.207 0.200334 14.2404C0.200334 14.3072 0.400668 15.7763 1.03504 16.4775C1.73621 17.2788 2.57092 17.379 3.10517 17.4457C3.20534 17.4457 3.27213 17.4457 3.3723 17.4791C4.90818 17.6127 9.78298 17.6795 9.98331 17.6795C10.0167 17.6795 14.0902 17.6795 16.7947 17.379H16.8948C17.3623 17.3456 18.197 17.2454 18.9315 16.4107C19.5993 15.7095 19.7997 14.207 19.7997 14.1402C19.7997 14.1402 20 12.4374 20 10.7345V9.16528C20 7.49582 19.7997 5.79298 19.7997 5.7596ZM19.3322 10.8013C19.3322 12.4708 19.1319 14.1402 19.1319 14.1402C19.0651 14.5075 18.8647 15.5759 18.4307 16.0434C17.8631 16.7112 17.1953 16.7779 16.828 16.8113H16.7279C14.0567 17.0117 10.0167 17.0117 9.98331 17.0117C9.94994 17.0117 4.94159 16.9449 3.47247 16.778C3.3723 16.778 3.27213 16.7446 3.17196 16.7446C2.70451 16.7112 2.03675 16.611 1.5025 16.01C1.10184 15.576 0.868126 14.5075 0.834711 14.1402C0.834711 14.1069 0.634377 12.4374 0.634377 10.8014V9.23207C0.634377 7.56261 0.834711 5.89319 0.834711 5.89319C0.868087 5.5259 1.10184 4.45748 1.5025 3.99002C2.1035 3.32222 2.73788 3.25543 3.13855 3.22206H3.23872C5.90985 3.02172 9.9499 2.98835 9.98327 2.98835C10.0166 2.98835 14.0567 3.02172 16.7278 3.22206H16.8614C17.2287 3.25543 17.8964 3.32222 18.464 3.99002C18.8647 4.45748 19.065 5.5259 19.1318 5.89319C19.1652 5.95998 19.3322 7.6294 19.3322 9.23207V10.8013H19.3322Z" fill="#7BF7FF"/>
			<path d="M14.157 10.0334L7.81309 6.32722C7.71292 6.26043 7.57938 6.26043 7.47921 6.32722C7.37905 6.39401 7.31226 6.49418 7.31226 6.62772V13.8731C7.31226 14.0067 7.37905 14.1068 7.47921 14.1736C7.546 14.207 7.57938 14.207 7.64617 14.207C7.71296 14.207 7.74634 14.207 7.81313 14.1736L14.157 10.6344C14.2572 10.5676 14.324 10.4674 14.324 10.3339C14.324 10.2004 14.2572 10.1002 14.157 10.0334ZM7.98005 13.3055V7.19531L13.3223 10.3339L7.98005 13.3055Z" fill="#7BF7FF"/>
		</g>
		
	</symbol>
	<symbol id="ytb-black" viewBox="0 0 20 20">
		<g>
			<path d="M19.7997 5.7596C19.7997 5.69281 19.5993 4.22373 18.965 3.52256C18.197 2.68785 17.3623 2.58768 16.9282 2.55427H16.7947C14.0902 2.35393 10.0501 2.32056 9.98335 2.32056C9.94998 2.32056 5.87651 2.35393 3.20538 2.62106H3.10521C2.63771 2.65443 1.803 2.7546 1.06846 3.58931C0.400668 4.29048 0.200334 5.79298 0.200334 5.85977C0.200334 5.85977 0 7.56261 0 9.26544V10.8347C0 12.5042 0.200334 14.207 0.200334 14.2404C0.200334 14.3072 0.400668 15.7763 1.03504 16.4775C1.73621 17.2788 2.57092 17.379 3.10517 17.4457C3.20534 17.4457 3.27213 17.4457 3.3723 17.4791C4.90818 17.6127 9.78298 17.6795 9.98331 17.6795C10.0167 17.6795 14.0902 17.6795 16.7947 17.379H16.8948C17.3623 17.3456 18.197 17.2454 18.9315 16.4107C19.5993 15.7095 19.7997 14.207 19.7997 14.1402C19.7997 14.1402 20 12.4374 20 10.7345V9.16528C20 7.49582 19.7997 5.79298 19.7997 5.7596ZM19.3322 10.8013C19.3322 12.4708 19.1319 14.1402 19.1319 14.1402C19.0651 14.5075 18.8647 15.5759 18.4307 16.0434C17.8631 16.7112 17.1953 16.7779 16.828 16.8113H16.7279C14.0567 17.0117 10.0167 17.0117 9.98331 17.0117C9.94994 17.0117 4.94159 16.9449 3.47247 16.778C3.3723 16.778 3.27213 16.7446 3.17196 16.7446C2.70451 16.7112 2.03675 16.611 1.5025 16.01C1.10184 15.576 0.868126 14.5075 0.834711 14.1402C0.834711 14.1069 0.634377 12.4374 0.634377 10.8014V9.23207C0.634377 7.56261 0.834711 5.89319 0.834711 5.89319C0.868087 5.5259 1.10184 4.45748 1.5025 3.99002C2.1035 3.32222 2.73788 3.25543 3.13855 3.22206H3.23872C5.90985 3.02172 9.9499 2.98835 9.98327 2.98835C10.0166 2.98835 14.0567 3.02172 16.7278 3.22206H16.8614C17.2287 3.25543 17.8964 3.32222 18.464 3.99002C18.8647 4.45748 19.065 5.5259 19.1318 5.89319C19.1652 5.95998 19.3322 7.6294 19.3322 9.23207V10.8013H19.3322Z" fill="black"/>
			<path d="M14.157 10.0334L7.81309 6.32722C7.71292 6.26043 7.57938 6.26043 7.47921 6.32722C7.37905 6.39401 7.31226 6.49418 7.31226 6.62772V13.8731C7.31226 14.0067 7.37905 14.1068 7.47921 14.1736C7.546 14.207 7.57938 14.207 7.64617 14.207C7.71296 14.207 7.74634 14.207 7.81313 14.1736L14.157 10.6344C14.2572 10.5676 14.324 10.4674 14.324 10.3339C14.324 10.2004 14.2572 10.1002 14.157 10.0334ZM7.98005 13.3055V7.19531L13.3223 10.3339L7.98005 13.3055Z" fill="black"/>
		</g>
		
	</symbol>
	<symbol id="telegram" viewBox="0 0 20 20">
		<g clip-path="url(#clip0)">
			<path d="M15.0495 4.76251L6.82413 9.82852C6.35866 10.1159 6.13839 10.6834 6.28835 11.2083L7.17773 14.3333C7.2537 14.5998 7.49081 14.7769 7.76362 14.7769C7.77882 14.7769 7.79417 14.7763 7.80956 14.7752C8.1012 14.754 8.33198 14.5368 8.37077 14.2473L8.60202 12.5338C8.63319 12.3032 8.74429 12.0888 8.91456 11.9302L15.7023 5.62071C15.9074 5.43052 15.9345 5.11907 15.7655 4.8963C15.5962 4.67333 15.2885 4.61567 15.0495 4.76251ZM8.37183 11.3468C8.06683 11.6308 7.86812 12.0144 7.81233 12.4271L7.70019 13.2583L7.0546 10.9899C7.00214 10.8061 7.07941 10.6074 7.2423 10.5068L13.268 6.79563L8.37183 11.3468Z" fill="white"/>
			<path d="M19.6744 1.46026C19.4174 1.24244 19.0628 1.18248 18.7487 1.30381L0.588829 8.30936C0.229181 8.44807 -0.00206923 8.7867 -0.000233288 9.17205C0.00164171 9.55776 0.23629 9.89452 0.598048 10.0301L4.83985 11.6132L6.49449 16.9345C6.58535 17.2271 6.81469 17.4544 7.10789 17.5426C7.40094 17.6307 7.71742 17.5677 7.95399 17.3742L10.4204 15.3635C10.5388 15.267 10.708 15.2622 10.8316 15.352L15.2802 18.5817C15.4402 18.6981 15.6291 18.758 15.8202 18.758C15.9321 18.758 16.0447 18.7374 16.1529 18.6956C16.4453 18.5825 16.6579 18.3319 16.7216 18.0252L19.9805 2.34905C20.049 2.01897 19.9317 1.67842 19.6744 1.46026ZM19.2004 2.18713L15.9415 17.8632C15.9297 17.9199 15.8889 17.9434 15.8656 17.9524C15.8422 17.9615 15.7959 17.9715 15.7486 17.9371L11.2998 14.7072C11.101 14.5628 10.8672 14.4912 10.6338 14.4912C10.3791 14.4912 10.1249 14.5765 9.91707 14.7458L7.45012 16.7569C7.40621 16.7929 7.36063 16.7865 7.33742 16.7795C7.31406 16.7724 7.27238 16.7525 7.25543 16.698L5.54274 11.1899C5.50613 11.0723 5.41707 10.9781 5.3016 10.935L0.877189 9.2837C0.810939 9.25889 0.796837 9.20721 0.796642 9.16819C0.796447 9.12952 0.81004 9.07807 0.875665 9.05276L19.0355 2.04725C19.0356 2.04721 19.0357 2.04717 19.0359 2.04713C19.0948 2.02436 19.1385 2.05053 19.1593 2.06811C19.1801 2.08588 19.2133 2.12494 19.2004 2.18713Z" fill="white"/>
			<path d="M16.6984 9.84931C16.4833 9.80259 16.2712 9.93912 16.2245 10.1542L16.1639 10.4331C16.1173 10.6481 16.2537 10.8602 16.4688 10.9069C16.4973 10.9131 16.5257 10.9161 16.5537 10.9161C16.7371 10.9161 16.9021 10.7886 16.9427 10.6021L17.0032 10.3232C17.0499 10.1082 16.9134 9.89603 16.6984 9.84931Z" fill="white"/>
			<path d="M16.3001 11.6844C16.0847 11.6378 15.8728 11.7742 15.8262 11.9893L14.9098 16.21C14.8631 16.4251 14.9996 16.6372 15.2146 16.6839C15.2431 16.6901 15.2715 16.693 15.2995 16.693C15.4829 16.693 15.6479 16.5656 15.6885 16.3791L16.6049 12.1583C16.6515 11.9433 16.5151 11.7311 16.3001 11.6844Z" fill="white"/>
		</g>
	</symbol>
	<symbol id="telegram-hover" viewBox="0 0 20 20">
		<g clip-path="url(#clip0)">
			<path d="M15.0495 4.76251L6.82413 9.82852C6.35866 10.1159 6.13839 10.6834 6.28835 11.2083L7.17773 14.3333C7.2537 14.5998 7.49081 14.7769 7.76362 14.7769C7.77882 14.7769 7.79417 14.7763 7.80956 14.7752C8.1012 14.754 8.33198 14.5368 8.37077 14.2473L8.60202 12.5338C8.63319 12.3032 8.74429 12.0888 8.91456 11.9302L15.7023 5.62071C15.9074 5.43052 15.9345 5.11907 15.7655 4.8963C15.5962 4.67333 15.2885 4.61567 15.0495 4.76251ZM8.37183 11.3468C8.06683 11.6308 7.86812 12.0144 7.81233 12.4271L7.70019 13.2583L7.0546 10.9899C7.00214 10.8061 7.07941 10.6074 7.2423 10.5068L13.268 6.79563L8.37183 11.3468Z" fill="#7BF7FF"/>
			<path d="M19.6744 1.46026C19.4174 1.24244 19.0628 1.18248 18.7487 1.30381L0.588829 8.30936C0.229181 8.44807 -0.00206923 8.7867 -0.000233288 9.17205C0.00164171 9.55776 0.23629 9.89452 0.598048 10.0301L4.83985 11.6132L6.49449 16.9345C6.58535 17.2271 6.81469 17.4544 7.10789 17.5426C7.40094 17.6307 7.71742 17.5677 7.95399 17.3742L10.4204 15.3635C10.5388 15.267 10.708 15.2622 10.8316 15.352L15.2802 18.5817C15.4402 18.6981 15.6291 18.758 15.8202 18.758C15.9321 18.758 16.0447 18.7374 16.1529 18.6956C16.4453 18.5825 16.6579 18.3319 16.7216 18.0252L19.9805 2.34905C20.049 2.01897 19.9317 1.67842 19.6744 1.46026ZM19.2004 2.18713L15.9415 17.8632C15.9297 17.9199 15.8889 17.9434 15.8656 17.9524C15.8422 17.9615 15.7959 17.9715 15.7486 17.9371L11.2998 14.7072C11.101 14.5628 10.8672 14.4912 10.6338 14.4912C10.3791 14.4912 10.1249 14.5765 9.91707 14.7458L7.45012 16.7569C7.40621 16.7929 7.36063 16.7865 7.33742 16.7795C7.31406 16.7724 7.27238 16.7525 7.25543 16.698L5.54274 11.1899C5.50613 11.0723 5.41707 10.9781 5.3016 10.935L0.877189 9.2837C0.810939 9.25889 0.796837 9.20721 0.796642 9.16819C0.796447 9.12952 0.81004 9.07807 0.875665 9.05276L19.0355 2.04725C19.0356 2.04721 19.0357 2.04717 19.0359 2.04713C19.0948 2.02436 19.1385 2.05053 19.1593 2.06811C19.1801 2.08588 19.2133 2.12494 19.2004 2.18713Z" fill="#7BF7FF"/>
			<path d="M16.6984 9.84931C16.4833 9.80259 16.2712 9.93912 16.2245 10.1542L16.1639 10.4331C16.1173 10.6481 16.2537 10.8602 16.4688 10.9069C16.4973 10.9131 16.5257 10.9161 16.5537 10.9161C16.7371 10.9161 16.9021 10.7886 16.9427 10.6021L17.0032 10.3232C17.0499 10.1082 16.9134 9.89603 16.6984 9.84931Z" fill="#7BF7FF"/>
			<path d="M16.3001 11.6844C16.0847 11.6378 15.8728 11.7742 15.8262 11.9893L14.9098 16.21C14.8631 16.4251 14.9996 16.6372 15.2146 16.6839C15.2431 16.6901 15.2715 16.693 15.2995 16.693C15.4829 16.693 15.6479 16.5656 15.6885 16.3791L16.6049 12.1583C16.6515 11.9433 16.5151 11.7311 16.3001 11.6844Z" fill="#7BF7FF"/>
		</g>
	</symbol>
	<symbol id="telegram-black" viewBox="0 0 20 20">
		<g clip-path="url(#clip0)">
			<path d="M15.0495 4.76251L6.82413 9.82852C6.35866 10.1159 6.13839 10.6834 6.28835 11.2083L7.17773 14.3333C7.2537 14.5998 7.49081 14.7769 7.76362 14.7769C7.77882 14.7769 7.79417 14.7763 7.80956 14.7752C8.1012 14.754 8.33198 14.5368 8.37077 14.2473L8.60202 12.5338C8.63319 12.3032 8.74429 12.0888 8.91456 11.9302L15.7023 5.62071C15.9074 5.43052 15.9345 5.11907 15.7655 4.8963C15.5962 4.67333 15.2885 4.61567 15.0495 4.76251ZM8.37183 11.3468C8.06683 11.6308 7.86812 12.0144 7.81233 12.4271L7.70019 13.2583L7.0546 10.9899C7.00214 10.8061 7.07941 10.6074 7.2423 10.5068L13.268 6.79563L8.37183 11.3468Z" fill="black"/>
			<path d="M19.6744 1.46026C19.4174 1.24244 19.0628 1.18248 18.7487 1.30381L0.588829 8.30936C0.229181 8.44807 -0.00206923 8.7867 -0.000233288 9.17205C0.00164171 9.55776 0.23629 9.89452 0.598048 10.0301L4.83985 11.6132L6.49449 16.9345C6.58535 17.2271 6.81469 17.4544 7.10789 17.5426C7.40094 17.6307 7.71742 17.5677 7.95399 17.3742L10.4204 15.3635C10.5388 15.267 10.708 15.2622 10.8316 15.352L15.2802 18.5817C15.4402 18.6981 15.6291 18.758 15.8202 18.758C15.9321 18.758 16.0447 18.7374 16.1529 18.6956C16.4453 18.5825 16.6579 18.3319 16.7216 18.0252L19.9805 2.34905C20.049 2.01897 19.9317 1.67842 19.6744 1.46026ZM19.2004 2.18713L15.9415 17.8632C15.9297 17.9199 15.8889 17.9434 15.8656 17.9524C15.8422 17.9615 15.7959 17.9715 15.7486 17.9371L11.2998 14.7072C11.101 14.5628 10.8672 14.4912 10.6338 14.4912C10.3791 14.4912 10.1249 14.5765 9.91707 14.7458L7.45012 16.7569C7.40621 16.7929 7.36063 16.7865 7.33742 16.7795C7.31406 16.7724 7.27238 16.7525 7.25543 16.698L5.54274 11.1899C5.50613 11.0723 5.41707 10.9781 5.3016 10.935L0.877189 9.2837C0.810939 9.25889 0.796837 9.20721 0.796642 9.16819C0.796447 9.12952 0.81004 9.07807 0.875665 9.05276L19.0355 2.04725C19.0356 2.04721 19.0357 2.04717 19.0359 2.04713C19.0948 2.02436 19.1385 2.05053 19.1593 2.06811C19.1801 2.08588 19.2133 2.12494 19.2004 2.18713Z" fill="black"/>
			<path d="M16.6984 9.84931C16.4833 9.80259 16.2712 9.93912 16.2245 10.1542L16.1639 10.4331C16.1173 10.6481 16.2537 10.8602 16.4688 10.9069C16.4973 10.9131 16.5257 10.9161 16.5537 10.9161C16.7371 10.9161 16.9021 10.7886 16.9427 10.6021L17.0032 10.3232C17.0499 10.1082 16.9134 9.89603 16.6984 9.84931Z" fill="black"/>
			<path d="M16.3001 11.6844C16.0847 11.6378 15.8728 11.7742 15.8262 11.9893L14.9098 16.21C14.8631 16.4251 14.9996 16.6372 15.2146 16.6839C15.2431 16.6901 15.2715 16.693 15.2995 16.693C15.4829 16.693 15.6479 16.5656 15.6885 16.3791L16.6049 12.1583C16.6515 11.9433 16.5151 11.7311 16.3001 11.6844Z" fill="black"/>
		</g>
	</symbol>
	<symbol id="comment" viewBox="0 0 20 18">
		<g>
			<path d="M3.21255 1.34769H16.807C18.2283 1.34769 19.3848 2.50389 19.3848 3.92547V12.245C19.3848 13.6634 18.2334 14.8177 16.8161 14.8228V18.5981L11.3906 14.8228H3.21255C1.79119 14.8228 0.634766 13.6663 0.634766 12.245V3.92547C0.634766 2.50389 1.79119 1.34769 3.21255 1.34769ZM1.7334 12.245C1.7334 13.0605 2.39693 13.7241 3.21255 13.7241H11.7353L15.7175 16.4952V13.7241H16.807C17.6226 13.7241 18.2861 13.0605 18.2861 12.245V3.92547C18.2861 3.10974 17.6226 2.44632 16.807 2.44632H3.21255C2.39693 2.44632 1.7334 3.10974 1.7334 3.92547V12.245Z" fill="white"/>
			<path d="M14.3665 5.22965H5.65316V6.32828H14.3665V5.22965Z" fill="white"/>
			<path d="M14.3665 7.5734H5.65316V8.67203H14.3665V7.5734Z" fill="white"/>
			<path d="M14.3665 9.91715H5.65316V11.0158H14.3665V9.91715Z" fill="white"/>
		</g>

	</symbol>
	<symbol id="eye" viewBox="0 0 20 20">
		<g clip-path="url(#clip0)">
			<path d="M19.9259 9.76332C19.7684 9.53414 15.9834 4.16655 9.99995 4.16655C4.86569 4.16655 0.29062 9.50332 0.0981168 9.73082C-0.0327056 9.88582 -0.0327056 10.1133 0.0981168 10.2691C0.29062 10.4967 4.86569 15.8334 9.99995 15.8334C15.1342 15.8334 19.7092 10.4967 19.9017 10.2691C20.0226 10.1258 20.0334 9.91832 19.9259 9.76332ZM9.99995 15.0001C5.88407 15.0001 1.97065 11.075 0.97649 10C1.96901 8.92417 5.87825 4.99993 9.99995 4.99993C14.8158 4.99993 18.2151 8.91917 19.0451 9.9775C18.0867 11.0183 14.1508 15.0001 9.99995 15.0001Z" fill="white"/>
			<path d="M9.99988 6.66659C8.16153 6.66659 6.6665 8.16162 6.6665 9.99996C6.6665 11.8383 8.16153 13.3333 9.99988 13.3333C11.8382 13.3333 13.3333 11.8383 13.3333 9.99996C13.3333 8.16162 11.8382 6.66659 9.99988 6.66659ZM9.99988 12.5C8.62154 12.5 7.49984 11.3783 7.49984 10C7.49984 8.62166 8.62154 7.49996 9.99988 7.49996C11.3782 7.49996 12.4999 8.62166 12.4999 10C12.4999 11.3783 11.3782 12.5 9.99988 12.5Z" fill="white"/>
		</g>
	</symbol>
	<symbol id="cross" viewBox="0 0 22 22">
		<g>
			<path d="M21 1L1 21" stroke="white"/>
			<path d="M0.999999 1L21 21" stroke="white"/>
		</g>	
	</symbol>
	<symbol id="search" viewBox="0 0 20 20">
		<path d="M19.7722 18.6726L14.8912 13.7917C16.1045 12.3328 16.8354 10.4593 16.8354 8.41797C16.8354 3.77628 13.0592 0 8.41776 0C3.77618 0 0 3.77628 0 8.41797C0 13.0593 3.77618 16.8353 8.41776 16.8353C10.459 16.8353 12.3326 16.1045 13.7915 14.8912L18.6726 19.7722C18.8244 19.9241 19.0234 20 19.2224 20C19.4214 20 19.6204 19.9241 19.7723 19.7722C20.076 19.4685 20.076 18.9763 19.7722 18.6726ZM1.55518 8.41797C1.55518 4.63381 4.6337 1.55518 8.41776 1.55518C12.2017 1.55518 15.2801 4.63381 15.2801 8.41797C15.2801 12.2018 12.2017 15.2801 8.41776 15.2801C4.6337 15.2801 1.55518 12.2018 1.55518 8.41797Z" fill="black"/>
	</symbol>
	<symbol id="vacancy" viewBox="0 0 80 80">
		<path d="M57.9435 18.288C57.9435 17.6947 57.3929 17.2315 56.959 17.2315C56.8577 17.2315 56.7563 17.2461 56.6843 17.3041L53.0082 19.6918C52.6755 19.9091 52.5596 20.2564 52.5596 20.5023C52.5596 20.7483 52.6755 21.0956 53.0082 21.3129L56.6843 23.7006C56.7563 23.7586 56.8577 23.7732 56.959 23.7732C57.3929 23.7732 57.9435 23.31 57.9435 22.7167C57.9435 22.4707 57.8422 22.2534 57.6829 22.1521L55.1353 20.5023L57.6829 18.8526C57.8416 18.7512 57.9435 18.534 57.9435 18.288Z" fill="white"/>
		<path d="M65.2224 13.3386C64.9618 13.3386 64.7299 13.454 64.6145 13.7006L59.5345 24.1345C59.4912 24.2212 59.4619 24.3225 59.4619 24.4098C59.4619 24.7711 59.7805 25.1764 60.2731 25.1764C60.5477 25.1764 60.823 25.0318 60.9243 24.8151L66.0183 14.3805C66.0616 14.2938 66.0763 14.1925 66.0763 14.1052C66.0757 13.6426 65.6271 13.3386 65.2224 13.3386Z" fill="white"/>
		<path d="M72.5314 19.6918L68.8558 17.3041C68.7832 17.2461 68.6819 17.2315 68.5806 17.2315C68.1466 17.2315 67.5967 17.6947 67.5967 18.288C67.5967 18.534 67.698 18.7512 67.8573 18.8526L70.4043 20.5023L67.8573 22.1521C67.698 22.2534 67.5967 22.4707 67.5967 22.7167C67.5967 23.31 68.1466 23.7732 68.5806 23.7732C68.6819 23.7732 68.7832 23.7586 68.8558 23.7006L72.5314 21.3129C72.8646 21.0956 72.98 20.7483 72.98 20.5023C72.98 20.2564 72.8646 19.9091 72.5314 19.6918Z" fill="white"/>
		<path d="M74.3332 5.82642H49.1013C47.7976 2.4231 44.4962 0 40.6394 0H23.7156C18.7223 0 14.6592 4.06311 14.6592 9.0564V19.3402C13.6496 20.21 13.1803 21.5704 13.4287 22.9401L14.094 26.601C14.3332 27.8583 15.001 28.5046 15.5185 28.8251C16.0978 29.1833 16.7405 29.3018 17.3307 29.3048V29.9554C17.3307 33.2562 19.2563 36.8939 22.6139 39.9365C23.2462 40.509 23.9035 41.037 24.5737 41.5143V43.4772C24.5737 44.0753 24.1471 44.5886 23.5587 44.6979C23.5312 44.7028 23.5044 44.7089 23.4775 44.7156C23.4574 44.7211 21.4457 45.2454 18.8157 45.9912H10.2225C9.25633 45.9912 8.32432 46.3971 7.66575 47.1039C7.00718 47.8107 6.66905 48.7695 6.73802 49.7333L6.76121 50.0641C2.91783 51.9916 0.499614 55.4474 0.268901 59.375C0.268291 59.3915 0.26768 59.408 0.26707 59.4244L0.000346358 75.5554C-0.0143021 76.7383 0.436137 77.8534 1.26683 78.6951C2.09873 79.5367 3.20774 80 4.39121 80H59.9643C61.1472 80 62.2568 79.5367 63.0881 78.6951C63.9194 77.8534 64.3699 76.7389 64.3552 75.5505L64.0885 59.4244C64.0879 59.408 64.0873 59.3915 64.086 59.375C63.8492 55.3339 61.2967 51.7926 57.2574 49.9011C57.1836 49.8663 57.1061 49.8309 57.0261 49.7949L57.0304 49.7333C57.0987 48.7695 56.7606 47.8113 56.1026 47.1039C55.4441 46.3971 54.5121 45.9912 53.5459 45.9912H45.5399C42.9105 45.2454 40.8982 44.7211 40.878 44.7162C40.8512 44.7089 40.8243 44.7028 40.7969 44.6979C40.2085 44.5886 39.7818 44.0753 39.7818 43.4772V41.5149C40.452 41.037 41.1094 40.509 41.7417 39.9365C43.8755 38.0029 45.4313 35.8289 46.2815 33.6536H53.8956L52.5657 39.0216C52.3441 39.917 52.6993 40.8215 53.4708 41.3263C53.8334 41.5637 54.2398 41.6815 54.6445 41.6815C55.1023 41.6815 55.5576 41.5314 55.9458 41.2329L65.8127 33.6536H74.3332C77.421 33.6536 79.9326 31.142 79.9326 28.0542V11.4258C79.9326 8.33862 77.421 5.82642 74.3332 5.82642ZM47.0273 21.3647C47.4753 21.2122 47.8995 21.1493 48.176 21.1243C48.544 21.4508 48.7174 21.9885 48.6209 22.5208L47.9593 26.1633C47.8629 26.6718 47.6676 26.7926 47.6035 26.8323C47.4674 26.9165 47.2666 26.9598 47.0261 26.9623L47.0273 21.3647ZM17.0029 9.0564C17.0029 5.35522 20.0144 2.34375 23.7156 2.34375H40.64C44.3412 2.34375 47.3526 5.35522 47.3526 9.0564V18.8751C46.7728 18.9777 46.0508 19.1742 45.3458 19.5502V12.4097C45.3458 9.84192 43.2566 7.75269 40.6888 7.75269H37.5217C36.4237 7.75269 35.3513 8.13538 34.5011 8.82996L34.191 9.08386C33.6246 9.54712 32.9093 9.80225 32.1775 9.80225C31.4457 9.80225 30.7309 9.54712 30.1645 9.08447L29.8539 8.82996C29.0042 8.13538 27.9313 7.75269 26.8332 7.75269H23.6667C21.099 7.75269 19.0097 9.84131 19.0097 12.4097V19.5496C18.3048 19.1742 17.5827 18.9771 17.0029 18.8751V9.0564ZM16.7521 26.8323C16.688 26.7926 16.4927 26.6718 16.3981 26.1731L15.7346 22.5214C15.6382 21.9891 15.8115 21.452 16.1783 21.1249C16.4548 21.1499 16.8796 21.2115 17.3282 21.3641L17.3294 26.9623C17.0896 26.9598 16.8888 26.9165 16.7521 26.8323ZM6.3834 76.8073C6.3834 77.1014 6.42369 77.3859 6.49815 77.6562H4.39121C3.83946 77.6562 3.32249 77.4402 2.93431 77.0477C2.54673 76.6553 2.33738 76.1353 2.34349 75.589L2.61021 59.4885C2.78355 56.6748 4.343 54.2352 6.94493 52.6398L8.37559 72.7136C8.40183 73.0823 8.48606 73.4344 8.6179 73.7622C7.32395 74.1699 6.3834 75.3809 6.3834 76.8073ZM55.3922 72.7136L56.846 52.3163C59.7867 53.894 61.5598 56.4764 61.7453 59.4885L62.0121 75.5841C62.0182 76.1353 61.8082 76.6553 61.4212 77.0477C61.0331 77.4402 60.5161 77.6562 59.9643 77.6562H57.8574C57.9325 77.3859 57.9721 77.1014 57.9721 76.8073C57.9721 75.188 56.7606 73.847 55.1963 73.6426C55.3019 73.349 55.3696 73.0377 55.3922 72.7136ZM55.6284 76.8073C55.6284 77.2754 55.2475 77.6562 54.78 77.6562H9.57554C9.10801 77.6562 8.72715 77.2754 8.72715 76.8073C8.72715 76.3397 9.10801 75.9589 9.57554 75.9589H54.78C55.2475 75.9589 55.6284 76.3397 55.6284 76.8073ZM54.3876 48.7012C54.6073 48.9374 54.7159 49.2444 54.6927 49.5667L53.0545 72.5476C53.0118 73.1464 52.5083 73.6151 51.9077 73.6151H11.8601C11.2601 73.6151 10.7566 73.1464 10.7132 72.547L9.07566 49.5667C9.05247 49.2444 9.16111 48.9374 9.38084 48.7012C9.60118 48.465 9.89964 48.335 10.2225 48.335H53.5459C53.8681 48.335 54.1672 48.465 54.3876 48.7012ZM38.4678 45.9912H25.8878C26.5287 45.3394 26.9175 44.447 26.9175 43.4772V42.9529C28.765 43.9093 30.6009 44.4458 32.1775 44.4458C33.754 44.4458 35.5899 43.9093 37.4381 42.9529V43.4772C37.4381 44.447 37.8269 45.3394 38.4678 45.9912ZM40.1676 38.1995C37.551 40.5701 34.415 42.1021 32.1775 42.1021C29.9405 42.1021 26.8045 40.5701 24.188 38.1995C21.3193 35.6012 19.6744 32.5958 19.6744 29.9548L19.672 22.572C19.6872 22.572 19.7025 22.5726 19.7178 22.5726C19.9295 22.5726 20.1432 22.5311 20.3476 22.4457C20.9586 22.1906 21.3535 21.5979 21.3535 20.9363V12.4097C21.3535 11.134 22.3911 10.0964 23.6667 10.0964H26.8338C27.3923 10.0964 27.938 10.2911 28.3701 10.6445L28.6814 10.899C29.6653 11.7029 30.9067 12.146 32.1775 12.146C33.4482 12.146 34.6903 11.7029 35.6742 10.8984L35.9848 10.6445C36.417 10.2911 36.9632 10.0964 37.5217 10.0964H40.6882C41.9638 10.0964 43.0021 11.134 43.0021 12.4097V20.9363C43.0021 21.5985 43.3963 22.1906 44.0079 22.4457C44.2264 22.5372 44.4565 22.5781 44.683 22.572L44.6811 29.9554C44.6817 32.5958 43.0362 35.6012 40.1676 38.1995ZM77.5888 28.0542C77.5888 29.8492 76.1289 31.3098 74.3332 31.3098H65.4148C65.1566 31.3098 64.9057 31.3953 64.7013 31.5527L54.9808 39.0192L56.5305 32.7637C56.6172 32.4139 56.5384 32.0435 56.3163 31.7596C56.0941 31.4758 55.7535 31.3098 55.3934 31.3098H46.9211C46.9901 30.8539 47.0255 30.4016 47.0255 29.9554V29.3048C47.6151 29.3018 48.2578 29.1833 48.837 28.8251C49.3552 28.5046 50.0229 27.8583 50.2634 26.5918L50.9269 22.9401C51.1759 21.5704 50.7053 20.2094 49.6964 19.3402V9.0564C49.6964 8.75793 49.6817 8.46191 49.6531 8.17017H74.3332C76.1289 8.17017 77.5888 9.63074 77.5888 11.4258V28.0542Z" fill="white"/>
		<path d="M32.178 66.3074C34.6072 66.3074 36.5835 64.3311 36.5835 61.9019C36.5835 59.4727 34.6072 57.4963 32.178 57.4963C29.7488 57.4963 27.7725 59.4727 27.7725 61.9019C27.7725 64.3311 29.7488 66.3074 32.178 66.3074ZM32.178 59.8401C33.3151 59.8401 34.2397 60.7654 34.2397 61.9019C34.2397 63.0389 33.3151 63.9636 32.178 63.9636C31.0415 63.9636 30.1162 63.0389 30.1162 61.9019C30.1162 60.7654 31.0415 59.8401 32.178 59.8401Z" fill="white"/>
	</symbol>
	<symbol id="arrowPrev" viewBox="0 0 40 40">
		<g>
			<path d="M29 20L11 20" stroke="white"/>
			<path d="M18.4902 12L11.0004 19.6L18.4902 27.2" stroke="white"/>
			<circle cx="20" cy="20" r="19.5" stroke="white"/>
		</g>
		
	</symbol>
	<symbol id="arrowNext" viewBox="0 0 40 40">
		<g>
			<path d="M11 20L29 20" stroke="white"/>
			<path d="M21.5098 28L28.9996 20.4L21.5098 12.8" stroke="white"/>
			<circle cx="20" cy="20" r="19.5" transform="rotate(-180 20 20)" stroke="white"/>
		</g>
		
	</symbol>
</svg>